<svg width="15" height="16" viewBox="0 0 15 16" fill="none" xmlns="http://www.w3.org/2000/svg">
<path d="M4.82005 14C4.81104 14 4.80204 14 4.79304 14C4.52298 14 4.25293 13.9256 4.00988 13.8046C3.77583 13.6836 3.55978 13.4975 3.38875 13.2742L0.94023 10.0079C0.634166 9.59847 0.706181 9.02153 1.09326 8.70514C1.48935 8.38875 2.04746 8.46319 2.35353 8.87264L4.81104 12.1389L12.6517 2.34014C12.9668 1.94 13.5339 1.88417 13.921 2.21917C14.308 2.54486 14.3621 3.13111 14.038 3.53125L6.20634 13.33C6.0263 13.544 5.81926 13.7115 5.57621 13.8325C5.34216 13.9442 5.0811 14 4.82005 14Z" fill="#484957"/>
</svg>
