<svg width="18" height="18" viewBox="0 0 18 18" fill="none" xmlns="http://www.w3.org/2000/svg">
<path d="M4.12131 4.15375C4.14018 3.84443 4.13263 3.56907 4.1779 3.29747C4.408 1.91687 5.50192 0.936111 6.90516 0.921022C9.37969 0.894617 11.8542 0.890845 14.3287 0.921022C15.8753 0.939883 17.0635 2.12811 17.0786 3.67846C17.105 6.41704 17.1088 9.15939 17.0786 11.898C17.0635 13.4785 15.8451 14.6365 14.2533 14.6592C13.9553 14.6629 13.8044 14.7044 13.7139 15.0477C13.3895 16.2699 12.3446 17.0734 11.0621 17.0847C8.61394 17.1035 6.16205 17.1073 3.71392 17.0847C2.11453 17.0696 0.918763 15.8587 0.911219 14.2593C0.89613 11.8338 0.89613 9.41212 0.911219 6.98663C0.922535 5.34575 2.13339 4.16507 3.77805 4.14998C3.88744 4.15375 3.99683 4.15375 4.12131 4.15375ZM7.36913 15.4626C8.55359 15.4626 9.74181 15.4664 10.9263 15.4626C11.7561 15.4589 12.2239 15.0062 12.2277 14.1763C12.2352 11.8037 12.2352 9.43098 12.2277 7.0583C12.2239 6.23975 11.7486 5.76823 10.9225 5.76823C8.56113 5.76446 6.20354 5.76446 3.84218 5.76823C2.98967 5.76823 2.53701 6.22843 2.53324 7.08471C2.52947 9.44607 2.52947 11.8037 2.53324 14.165C2.53324 15.0213 2.98213 15.4626 3.84595 15.4626C5.02286 15.4664 6.19599 15.4626 7.36913 15.4626ZM13.8459 12.9994C14.9021 13.1465 15.4528 12.6901 15.4528 11.6943C15.4566 9.08017 15.4566 6.46608 15.4528 3.85575C15.4528 2.9957 15.0077 2.55059 14.1477 2.55059C11.7863 2.54682 9.42495 2.54682 7.06359 2.55059C6.12432 2.55059 5.62263 3.18431 5.81124 4.15752C5.93949 4.15752 6.07529 4.15752 6.21108 4.15752C7.78784 4.15752 9.36837 4.15375 10.9451 4.15752C12.6501 4.1613 13.8421 5.36084 13.8459 7.07339C13.8497 8.91797 13.8459 10.7588 13.8459 12.6034C13.8459 12.7354 13.8459 12.8674 13.8459 12.9994Z" fill="#E8E8EA"/>
</svg>
