<svg width="26" height="30" viewBox="0 0 26 30" fill="none" xmlns="http://www.w3.org/2000/svg">
<path d="M0.0167478 14.9454C0.0167478 13.0191 0.0435073 11.0928 0.00605223 9.16658C-0.0153507 7.98942 0.476915 7.19752 1.49355 6.61964C4.82705 4.73083 8.1445 2.81527 11.4566 0.883664C12.4839 0.284383 13.4364 0.279032 14.4637 0.878313C17.8079 2.82598 21.1628 4.75224 24.5231 6.67315C25.529 7.25102 26.0052 8.06433 25.9999 9.24149C25.9731 13.078 25.9838 16.9091 25.9945 20.7456C25.9999 21.9441 25.5343 22.7949 24.4642 23.3995C21.1789 25.2562 17.9042 27.1343 14.6563 29.0552C13.4685 29.7562 12.409 29.7294 11.2319 29.0338C8.03214 27.1397 4.81635 25.2776 1.57381 23.4691C0.450158 22.843 -0.0207066 21.9869 0.000696278 20.7348C0.0381513 18.7979 0.0113971 16.8716 0.0167478 14.9454ZM16.7057 12.8586C17.8186 12.2218 18.8941 11.5744 20.0017 10.9805C20.4726 10.729 20.5421 10.515 20.2211 10.0762C18.0166 7.0798 15.063 5.73142 11.4084 6.39491C4.95547 7.56672 2.33896 14.8758 5.70992 19.7771C8.02143 23.1373 12.2271 24.5553 16.0422 23.1159C17.9845 22.3829 19.4666 21.0987 20.5528 19.2527C19.2633 18.5089 18.0219 17.7866 16.7806 17.0696C14.758 20.0446 11.4941 19.5309 10.0119 18.0702C8.32642 16.4115 8.34247 13.5809 10.0601 11.9062C11.6064 10.3919 14.7687 10.0709 16.7057 12.8586ZM23.378 17.1124C23.4155 16.877 23.4422 16.6897 23.4636 16.5185C24.202 16.3366 24.2074 16.3312 24.0468 15.5446C23.8489 15.5018 23.6509 15.459 23.4529 15.4162C23.4529 15.1219 23.4529 14.8651 23.4529 14.5922C23.6776 14.5548 23.8756 14.5227 24.079 14.4852C24.079 14.1749 24.079 13.8966 24.079 13.6291C23.8382 13.5863 23.6402 13.5542 23.4529 13.5167C23.4262 13.292 23.4048 13.1101 23.3834 12.9442C22.8108 12.789 22.3935 12.8372 22.4202 13.5328C22.1206 13.5328 21.8638 13.5328 21.6176 13.5328C21.4732 12.8104 21.4303 12.7837 20.6331 12.9656C20.6117 13.1475 20.5903 13.3294 20.5689 13.5221C20.3441 13.5595 20.1462 13.5916 19.9535 13.6237C19.9535 13.9394 19.9535 14.2123 19.9535 14.4959C20.1836 14.528 20.3655 14.5494 20.5582 14.5762C20.5582 14.8812 20.5582 15.154 20.5582 15.4376C20.3334 15.4751 20.1515 15.5072 19.9535 15.5393C19.9535 15.8336 19.9535 16.1011 19.9535 16.374C20.1783 16.4275 20.3602 16.465 20.5528 16.5078C20.5849 16.7058 20.617 16.8877 20.6545 17.1178C21.0504 17.0857 21.532 17.3639 21.5909 16.6362C21.5962 16.5613 21.8905 16.4543 22.051 16.4543C22.1848 16.4543 22.4309 16.5773 22.4363 16.6576C22.4898 17.3478 22.9553 17.1071 23.378 17.1124Z" fill="#E8E8EA"/>
<path d="M21.4785 14.5706C21.8798 14.5706 22.1153 14.5706 22.4631 14.5706C22.4363 14.8595 22.4738 15.1645 22.3614 15.4053C22.3186 15.5016 21.8263 15.539 21.7514 15.4427C21.5962 15.2394 21.5802 14.9291 21.4785 14.5706Z" fill="#E8E8EA"/>
</svg>
