<svg width="20" height="21" viewBox="0 0 20 21" fill="none" xmlns="http://www.w3.org/2000/svg">
<path d="M6.6687 14.6714L10.002 18.0047L13.3354 14.6714" stroke="#0263E0" stroke-width="1.25" stroke-linecap="round" stroke-linejoin="round"/>
<path d="M10.002 10.5049V18.0049" stroke="#0263E0" stroke-width="1.25" stroke-linecap="round" stroke-linejoin="round"/>
<path d="M17.402 15.5798C18.1265 15.0704 18.6698 14.3433 18.9531 13.5041C19.2364 12.6649 19.2449 11.7573 18.9773 10.913C18.7098 10.0687 18.1802 9.33157 17.4654 8.80863C16.7506 8.28569 15.8877 8.00413 15.002 8.00483H13.952C13.7014 7.02805 13.2324 6.12087 12.5805 5.35156C11.9285 4.58225 11.1105 3.97088 10.188 3.56346C9.26558 3.15603 8.26272 2.96318 7.25496 2.99942C6.24719 3.03567 5.26078 3.30005 4.36998 3.77268C3.47918 4.24531 2.70721 4.91387 2.11218 5.72802C1.51714 6.54217 1.11456 7.4807 0.934737 8.47295C0.754911 9.4652 0.802528 10.4853 1.074 11.4565C1.34548 12.4277 1.83374 13.3246 2.50202 14.0798" stroke="#0263E0" stroke-width="1.25" stroke-linecap="round" stroke-linejoin="round"/>
</svg>
