<svg width="40" height="41" viewBox="0 0 40 41" fill="none" xmlns="http://www.w3.org/2000/svg">
<rect y="0.333008" width="40" height="40" rx="20" fill="#F22F46"/>
<path d="M17.5134 21.9304C16.9399 21.9304 16.4266 21.9333 15.9133 21.9304C15.3914 21.9275 15.033 21.6194 15.0186 21.0825C14.9928 20.1496 14.9957 19.2137 15.0158 18.2807C15.0272 17.7555 15.3513 17.4387 15.8646 17.4211C16.3979 17.4005 16.9342 17.4152 17.5134 17.4152C17.5134 16.934 17.5163 16.494 17.5134 16.0568C17.5077 14.9684 17.7314 13.9415 18.3737 13.0525C19.1795 11.9377 20.2864 11.3832 21.6313 11.345C22.4629 11.3216 23.2974 11.3392 24.1318 11.3421C24.6337 11.3421 24.9806 11.6648 24.9892 12.1812C25.0036 13.0467 25.0036 13.9092 24.9892 14.7747C24.9806 15.294 24.6394 15.6226 24.1089 15.6461C23.5497 15.6695 22.9905 15.6754 22.4314 15.6784C22.1532 15.6813 22.0414 15.8221 22.0442 16.092C22.0471 16.5116 22.0442 16.9311 22.0442 17.4123C22.2364 17.4123 22.4113 17.4123 22.5891 17.4123C23.0909 17.4152 23.5927 17.4064 24.0946 17.4328C24.5505 17.4563 24.8573 17.7409 24.8688 18.2044C24.8946 19.1843 24.8946 20.1672 24.8688 21.1471C24.8573 21.6253 24.4989 21.9304 24.0315 21.9333C23.3834 21.9392 22.7353 21.9333 22.0356 21.9333C22.0356 22.0947 22.0356 22.2297 22.0356 22.3646C22.0356 24.3156 22.0356 26.2667 22.0356 28.2177C22.0356 29.0128 21.7317 29.3267 20.9603 29.3296C20.1488 29.3326 19.3401 29.3355 18.5286 29.3296C17.8145 29.3238 17.5134 29.0128 17.5134 28.2764C17.5106 26.3019 17.5134 24.3274 17.5134 22.3529C17.5134 22.2209 17.5134 22.0976 17.5134 21.9304ZM16.0596 20.8742C16.6474 20.8742 17.1951 20.8742 17.7429 20.8742C18.3508 20.8742 18.5458 21.0679 18.5458 21.684C18.5458 23.7289 18.5458 25.7708 18.5458 27.8157C18.5458 27.9536 18.5458 28.0886 18.5458 28.2382C19.3802 28.2382 20.1717 28.2382 21.0033 28.2382C21.0033 28.0798 21.0033 27.9419 21.0033 27.804C21.0033 25.7591 21.0033 23.7171 21.0033 21.6722C21.0033 21.0679 21.1926 20.8742 21.7747 20.8742C22.4572 20.8742 23.1368 20.8742 23.8307 20.8742C23.8307 20.0586 23.8307 19.2841 23.8307 18.4743C23.6874 18.4743 23.5641 18.4743 23.4408 18.4743C22.8586 18.4743 22.2765 18.4831 21.6944 18.4714C21.2126 18.4626 21.009 18.2484 21.0033 17.7614C20.9976 17.3419 21.0004 16.9194 21.0033 16.4998C21.0062 15.0358 21.4449 14.5899 22.893 14.584C23.2429 14.584 23.5899 14.584 23.9426 14.584C23.9426 13.8212 23.9426 13.1171 23.9426 12.3836C23.1712 12.3836 22.4199 12.3602 21.6714 12.3895C20.0513 12.4511 18.8555 13.519 18.6289 15.1591C18.5286 15.8808 18.5572 16.626 18.5486 17.3595C18.5372 18.3834 18.4569 18.4743 17.4532 18.4743C16.9915 18.4743 16.5299 18.4743 16.0596 18.4743C16.0596 19.3017 16.0596 20.0674 16.0596 20.8742Z" fill="white"/>
</svg>
