<svg width="40" height="41" viewBox="0 0 40 41" fill="none" xmlns="http://www.w3.org/2000/svg">
<rect y="0.333008" width="40" height="40" rx="20" fill="#F22F46"/>
<path fill-rule="evenodd" clip-rule="evenodd" d="M20.0177 11.3343C20.4981 11.3343 20.9786 11.334 21.4589 11.3337L21.4595 11.3337C22.4196 11.333 23.3794 11.3324 24.3378 11.3343C27.035 11.3402 28.9925 13.2919 28.9984 15.9832C29.0013 18.877 29.0013 21.7707 28.9984 24.6616C28.9955 27.3793 27.0438 29.3281 24.3231 29.331C21.4411 29.3339 18.562 29.3339 15.6799 29.331C12.9593 29.3281 11.0046 27.3793 11.0017 24.6645C10.9988 21.7707 10.9988 18.877 11.0017 15.9861C11.0046 13.2919 12.9622 11.3402 15.6594 11.3343H20.0177ZM12.5008 21.7644L12.5008 21.7649C12.5001 22.7177 12.4995 23.6706 12.5014 24.6234C12.5044 26.5693 13.7693 27.8371 15.7151 27.8371C18.5737 27.8401 21.4323 27.8401 24.2909 27.8371C26.2367 27.8342 27.5016 26.5693 27.5016 24.6234C27.5045 21.7649 27.5045 18.9063 27.5016 16.0477C27.4987 14.1019 26.2337 12.834 24.2879 12.834C21.4293 12.8311 18.5708 12.8311 15.7122 12.834C13.7693 12.837 12.5044 14.1019 12.4985 16.0477C12.4985 16.7624 12.4992 17.477 12.5 18.1917C12.5007 18.9063 12.5014 19.6209 12.5014 20.3356C12.5014 20.8118 12.5011 21.2881 12.5008 21.7644ZM19.9854 24.8348C17.5113 24.826 15.5009 22.8039 15.5039 20.3268C15.5068 17.8351 17.5436 15.8189 20.0353 15.8365C22.5094 15.8541 24.514 17.885 24.4993 20.362C24.4876 22.8362 22.4595 24.8436 19.9854 24.8348ZM20.0031 17.3333C18.3625 17.3333 17.0124 18.6804 17.0036 20.3268C16.9948 21.9645 18.339 23.3204 19.9854 23.3351C21.6319 23.3498 23.0113 21.9733 23.0025 20.3239C22.9937 18.6804 21.6437 17.3333 20.0031 17.3333ZM24.8983 16.5876C25.5176 16.57 25.996 16.0681 25.9901 15.4459C25.9842 14.8208 25.4941 14.3424 24.866 14.3454C24.2468 14.3512 23.7478 14.8472 23.7478 15.4606C23.7478 16.0828 24.282 16.6052 24.8983 16.5876Z" fill="white"/>
</svg>
