<svg width="26" height="30" viewBox="0 0 26 30" fill="none" xmlns="http://www.w3.org/2000/svg">
<path d="M12.7609 29.6555C12.4791 29.5598 12.176 29.5013 11.9155 29.3631C11.4316 29.1132 10.9691 28.8207 10.5012 28.5389C9.7515 28.0976 9.00714 27.6563 8.26277 27.215C8.20961 27.1831 8.15644 27.1566 8.1139 27.114C8.06073 27.0555 7.9863 26.9864 7.9863 26.9173C7.9863 26.8748 8.08732 26.811 8.15644 26.7844C8.33189 26.7099 8.5233 26.6621 8.69876 26.5823C9.04436 26.4228 9.38995 26.258 9.72492 26.0772C9.86847 25.9975 9.99076 25.9922 10.129 26.0772C10.9903 26.593 11.857 27.0981 12.713 27.6191C12.9204 27.7414 13.0852 27.7414 13.2925 27.6244C15.7489 26.1995 18.2107 24.7799 20.6724 23.3603C21.7198 22.7542 22.7672 22.1481 23.82 21.5526C24.006 21.4462 24.0805 21.3133 24.0805 21.0953C24.0752 17.0226 24.0752 12.9499 24.0805 8.87713C24.0805 8.68572 24.006 8.56343 23.8465 8.46773C21.656 7.20763 19.4654 5.94753 17.2749 4.68211C15.9457 3.91648 14.6164 3.15617 13.2979 2.37991C13.0958 2.26293 12.931 2.26293 12.7236 2.37991C10.4959 3.67191 8.26809 4.95327 6.035 6.23996C4.73237 6.979 3.451 7.72337 2.16432 8.46241C1.99949 8.55812 1.92506 8.67509 1.92506 8.8665C1.93037 12.9552 1.93037 17.0385 1.92506 21.1272C1.92506 21.3133 1.99418 21.425 2.14837 21.5153C3.10009 22.063 4.04117 22.6213 4.99821 23.1529C5.48205 23.4241 5.99778 23.5623 6.55606 23.4347C7.17813 23.2859 7.61411 22.7382 7.61411 22.0896C7.61411 18.0487 7.61411 14.0079 7.61411 9.96177C7.61411 9.64276 7.7045 9.55237 8.0182 9.55237C8.41165 9.55237 8.8051 9.55237 9.19854 9.55237C9.50161 9.55237 9.59199 9.64276 9.59199 9.94051C9.59199 11.408 9.59199 12.8701 9.59199 14.3376C9.59199 17.0173 9.60263 19.7023 9.58136 22.382C9.57604 23.2274 9.32083 24.009 8.70408 24.6257C8.23087 25.0989 7.6407 25.3169 6.99204 25.4073C5.84891 25.5668 4.81212 25.2584 3.8285 24.7002C2.95653 24.2057 2.0952 23.7006 1.22323 23.2008C0.404429 22.7382 0.000346624 22.0364 0.000346624 21.0953C0.000346624 17.3097 0.000346624 13.5188 0.000346624 9.73315C0.000346624 9.37692 -0.00497025 9.01537 0.0162973 8.65914C0.0641492 7.86161 0.441647 7.25017 1.12752 6.84608C2.52055 6.02728 3.9242 5.22443 5.32254 4.41627C7.21535 3.32099 9.10816 2.22572 11.001 1.13576C11.3891 0.912447 11.7666 0.673188 12.176 0.503048C12.8619 0.221253 13.5478 0.301007 14.1911 0.673188C16.0254 1.73125 17.8597 2.78931 19.6941 3.85268C21.422 4.85225 23.15 5.84651 24.8727 6.8514C25.5001 7.21826 25.851 7.77654 25.9733 8.48368C25.9946 8.62192 25.9892 8.76016 25.9892 8.90371C25.9892 12.9233 25.9786 16.9375 25.9999 20.9571C26.0052 22.0364 25.5586 22.7808 24.6281 23.3071C22.629 24.4396 20.6458 25.5987 18.6573 26.7472C17.1473 27.6191 15.6426 28.4858 14.1326 29.3577C13.8721 29.5066 13.5956 29.6076 13.2925 29.6395C13.2766 29.6395 13.2606 29.6555 13.2394 29.6661C13.0799 29.6555 12.9204 29.6555 12.7609 29.6555Z" fill="#E8E8EA"/>
<path d="M16.6953 22.1745C15.616 22.1266 14.5526 22.0416 13.5158 21.7279C12.7236 21.4886 11.9952 21.1271 11.405 20.5262C10.8467 19.9573 10.5224 19.2715 10.4001 18.4899C10.3576 18.224 10.3469 17.9582 10.3363 17.687C10.3257 17.4531 10.4533 17.3202 10.6872 17.3202C11.2083 17.3149 11.7293 17.3149 12.2504 17.3202C12.4418 17.3202 12.5375 17.4106 12.5853 17.5966C12.6492 17.8625 12.697 18.1283 12.7821 18.3889C13.032 19.1332 13.5956 19.5373 14.3186 19.7447C14.9301 19.9201 15.5575 19.9946 16.1902 19.9892C16.8495 19.9839 17.5141 19.9733 18.1734 19.9201C18.6891 19.8776 19.1995 19.75 19.6515 19.4682C20.1991 19.1226 20.3958 18.6069 20.3799 17.9795C20.3639 17.4478 20.029 17.1713 19.593 16.9852C19.0454 16.7513 18.4658 16.6396 17.8863 16.5492C17.4822 16.4854 17.0834 16.4323 16.6793 16.3791C16.2699 16.3312 15.8605 16.294 15.4511 16.2462C14.5047 16.1292 13.569 15.9697 12.6864 15.5869C11.8942 15.2466 11.2402 14.7415 10.9637 13.8961C10.5596 12.6413 10.666 11.4397 11.5167 10.3816C11.9952 9.78615 12.6385 9.41397 13.351 9.15876C14.0581 8.90887 14.7865 8.78658 15.5309 8.73341C16.3178 8.68024 17.1047 8.70683 17.8863 8.80253C18.7423 8.90887 19.5717 9.11091 20.332 9.54689C21.305 10.0999 21.8846 10.9399 22.1504 12.0139C22.2195 12.2957 22.2567 12.5881 22.2993 12.8753C22.3365 13.1517 22.1929 13.3166 21.9165 13.3219C21.4114 13.3272 20.9116 13.3272 20.4065 13.3219C20.1885 13.3219 20.0821 13.2262 20.029 13.0135C19.928 12.5935 19.7897 12.1894 19.5239 11.8332C19.1411 11.328 18.5987 11.0994 18.0032 10.9825C17.2642 10.8389 16.5145 10.8176 15.7595 10.8548C15.1906 10.8814 14.6323 10.9452 14.1007 11.1632C13.6009 11.3653 13.2287 11.7002 13.1649 12.2585C13.1011 12.8434 13.1224 13.2209 13.8135 13.4973C13.9731 13.5611 14.1379 13.6303 14.3027 13.6622C15.0205 13.8004 15.7436 13.9493 16.4667 14.0609C17.6151 14.2417 18.7795 14.3534 19.9067 14.6617C20.465 14.8159 21.0073 15.0126 21.5017 15.3317C22.1291 15.7411 22.5279 16.31 22.6821 17.0384C22.8416 17.804 22.8203 18.559 22.5598 19.3034C22.2567 20.17 21.6666 20.7921 20.8797 21.244C20.1778 21.6428 19.4175 21.8767 18.62 21.9884C17.982 22.0788 17.3386 22.116 16.6953 22.1745Z" fill="#E8E8EA"/>
</svg>
