<svg width="22" height="30" viewBox="0 0 22 30" fill="none" xmlns="http://www.w3.org/2000/svg">
<path d="M13.9277 0.125244C14.9109 1.56716 14.9655 3.4624 13.9496 4.81692C13.2942 5.69627 12.4421 6.43361 11.6447 7.19826C10.9838 7.82637 10.2629 8.39986 9.57469 9.00066C8.82096 9.65061 8.59702 10.4753 8.81549 11.4257C8.99027 12.1849 9.15414 12.9441 9.38899 13.6814C9.61839 14.3969 9.92971 15.0851 10.17 15.8115C8.59157 14.4024 7.06226 12.9441 6.93664 10.6283C6.88202 9.68338 7.32989 8.85865 7.94707 8.20323C8.75542 7.34573 9.67845 6.58654 10.5687 5.81643C10.962 5.47234 11.4099 5.18286 11.8468 4.88793C13.316 3.89388 13.9114 2.46835 13.9277 0.742427C13.9277 0.567649 13.9277 0.398334 13.9277 0.125244Z" fill="#E8E8EA"/>
<path d="M3.59942 25.3698C3.17886 25.5064 2.74737 25.6047 2.34866 25.7849C2.10834 25.8941 1.91718 26.129 1.70417 26.3038C1.92265 26.4403 2.13019 26.6533 2.37051 26.7025C3.39733 26.91 4.42961 27.1394 5.47281 27.2377C9.82039 27.6528 14.1461 27.4999 18.4282 26.5714C18.805 26.4895 19.1928 26.3966 19.5424 26.2382C19.8373 26.1072 20.0831 25.8723 20.3453 25.6866C20.5856 26.0689 20.5419 26.4076 19.9793 26.6479C19.0727 27.0357 18.1387 27.4071 17.1829 27.6201C13.4252 28.4503 9.60738 28.4721 5.78958 28.2755C4.37498 28.2045 2.97131 27.9642 1.56763 27.7512C1.17984 27.6911 0.770203 27.5163 0.453419 27.2814C0.218562 27.1121 -0.00536389 26.7571 9.79069e-05 26.4895C0.0055597 26.2655 0.322343 25.9269 0.562662 25.8614C1.54578 25.5937 2.55622 25.408 3.55026 25.1896C3.57211 25.2497 3.58303 25.3097 3.59942 25.3698Z" fill="#E8E8EA"/>
<path d="M6.59254 16.4288C5.84427 16.8056 4.954 16.8275 4.30951 17.6795C4.78469 17.7833 5.14517 17.9035 5.51111 17.9362C9.23059 18.2639 12.9337 18.1329 16.675 17.6468C16.036 17.9144 15.4188 18.2476 14.7579 18.4442C11.2187 19.5092 7.63028 19.5365 4.02004 18.8702C3.59402 18.7937 3.16254 18.5971 2.79113 18.3677C2.14664 17.9635 2.1685 17.2754 2.88399 17.046C3.81796 16.7456 4.80654 16.6145 5.77873 16.4397C6.0409 16.3851 6.31945 16.4288 6.59254 16.4288Z" fill="#E8E8EA"/>
<path d="M16.3309 6.401C15.5444 7.08919 14.8234 7.71183 14.1188 8.35086C13.8348 8.61303 13.5672 8.9025 13.3269 9.2029C12.5568 10.1751 12.5295 10.8687 13.1903 11.9119C13.2504 12.0103 13.316 12.1086 13.3815 12.2069C14.6104 14.1076 14.31 15.626 12.3984 16.975C12.4093 16.8767 12.4038 16.8003 12.4311 16.7402C12.9227 15.6751 12.808 14.7412 11.9669 13.8618C11.3715 13.2337 11.0821 12.4254 10.9455 11.5515C10.7871 10.5247 11.164 9.73269 11.8686 9.03905C12.8135 8.10508 14.8671 6.87072 16.3309 6.401Z" fill="#E8E8EA"/>
<path d="M15.5334 24.5558C13.5945 25.3205 11.6555 25.599 9.6565 25.4734C8.8427 25.4242 8.03435 25.2931 7.23147 25.1839C6.98568 25.1511 6.73989 25.0747 6.50504 24.9873C5.98071 24.7907 5.31984 24.6377 5.38538 23.9222C5.45092 23.1904 6.15003 23.234 6.73444 23.092C6.54328 23.7201 7.00753 23.7092 7.34616 23.7748C9.23594 24.1407 11.1476 24.2117 13.0155 23.742C14.0806 23.4689 14.7251 24.026 15.5334 24.5558Z" fill="#E8E8EA"/>
<path d="M5.75128 19.9624C5.42358 20.6888 5.89329 20.8035 6.28108 20.8363C7.48267 20.9455 8.68972 21.0875 9.88585 21.0493C11.2021 21.0056 12.5403 20.8745 13.8183 20.5741C14.7195 20.3666 15.2985 20.6342 15.9648 21.2787C15.1565 21.4425 14.4191 21.6064 13.6763 21.7375C11.2513 22.1635 8.81534 22.4584 6.36845 21.9123C5.89874 21.8085 5.42904 21.6446 4.99755 21.4316C4.78454 21.3278 4.52783 21.0438 4.52783 20.8472C4.53329 20.6506 4.81732 20.4321 5.01941 20.2792C5.18872 20.1481 5.41265 20.1044 5.75128 19.9624Z" fill="#E8E8EA"/>
<path d="M17.9858 16.2759C18.7013 16.1776 19.4223 15.9482 20.1214 16.0083C21.6507 16.1339 22.5301 18.1439 21.6507 19.4602C21.3394 19.9299 20.8806 20.3613 20.389 20.6344C19.5206 21.1205 18.5812 21.4756 17.6691 21.8906C17.6472 21.847 17.6254 21.7978 17.6035 21.7541C18.2207 21.2079 18.8597 20.6836 19.4496 20.1046C19.7773 19.7824 20.0722 19.4055 20.3016 19.0014C20.7823 18.1657 20.5474 17.3737 19.6735 16.9641C19.1547 16.7183 18.5757 16.6091 18.0241 16.4343C18.0186 16.3852 18.0022 16.3305 17.9858 16.2759Z" fill="#E8E8EA"/>
<path d="M5.05234 29.1547C5.2435 29.1547 5.42919 29.1547 5.62036 29.1547C8.46049 29.1601 11.3061 29.1984 14.1462 29.1547C16.7952 29.1164 19.3731 28.7341 21.7326 27.1174C21.394 27.964 20.8315 28.472 20.1378 28.6904C18.9417 29.0673 17.7128 29.4059 16.4729 29.5752C12.8245 30.0723 9.17599 29.9193 5.53843 29.3513C5.37458 29.324 5.21073 29.2803 5.04688 29.2421C5.04687 29.2093 5.05234 29.182 5.05234 29.1547Z" fill="#E8E8EA"/>
</svg>
