<svg width="35" height="35" viewBox="0 0 35 35" fill="none" xmlns="http://www.w3.org/2000/svg">
<path d="M9.0585 27.6936C11.4691 27.2984 13.8746 26.7153 15.0192 24.3C15.2078 24.2724 15.3891 24.2491 15.5647 24.2265C15.9848 24.1724 16.3721 24.1225 16.7466 24.0289L16.7478 24.0286C17.3736 23.8666 17.979 23.6445 18.5747 23.4259C18.634 23.4041 18.6933 23.3823 18.7524 23.3607C18.9159 23.3009 19.0339 23.2643 19.1209 23.2503C19.2096 23.2359 19.2368 23.2499 19.2441 23.255C19.2517 23.2604 19.2748 23.2823 19.2923 23.3729C19.3094 23.4615 19.3161 23.5883 19.3161 23.7675C19.3161 24.7923 18.9554 25.6706 18.2725 26.4544L18.2721 26.4548C18.1774 26.5646 18.1031 26.7269 18.0634 26.8804C18.0431 26.9586 18.0304 27.0399 18.0298 27.1169C18.0292 27.1918 18.04 27.2741 18.0774 27.3455L18.0782 27.347C18.157 27.4934 18.3052 27.5862 18.4408 27.6519C18.534 27.6971 18.6408 27.7379 18.7361 27.7743C18.779 27.7907 18.8195 27.8062 18.8553 27.8208L18.8579 27.8217C18.9406 27.8536 19.0289 27.8535 19.1003 27.848C19.1476 27.8444 19.2011 27.8368 19.2472 27.8302C19.2677 27.8272 19.2868 27.8245 19.3031 27.8225C21.3585 27.5957 23.2255 26.8824 24.8254 25.5342C25.8243 24.6944 26.4471 23.7342 26.6761 22.679C26.9052 21.624 26.7372 20.4899 26.1831 19.3082C26.1153 19.1605 26.0924 19.0771 26.099 19.0114C26.1047 18.9547 26.1362 18.8839 26.2593 18.7753C31.262 14.3846 33.2703 8.60298 33.9522 2.23321L33.9523 2.23207C33.9961 1.79015 33.9674 1.44203 33.7484 1.23108C33.6382 1.12485 33.4937 1.06751 33.3259 1.04134C33.1594 1.01535 32.9605 1.01855 32.7296 1.04103C31.8238 1.1292 30.9075 1.24165 30.0061 1.41066L30.006 1.41067C25.7762 2.20527 21.8241 3.6842 18.4805 6.50398C17.8599 7.02579 17.2946 7.62675 16.7377 8.21887C16.5024 8.469 16.2687 8.71755 16.0328 8.95789C15.9301 8.90886 15.8373 8.86547 15.7512 8.82523C15.6804 8.79212 15.6141 8.76113 15.5506 8.73087L15.5492 8.73023C14.5435 8.26416 13.5385 8.10151 12.5818 8.25681C11.6248 8.41217 10.7264 8.88411 9.93185 9.67046L9.9318 9.6705C8.20022 11.3858 7.34022 13.5238 7.17821 15.9214H7.17821L7.17812 15.9229C7.16853 16.0907 7.21317 16.295 7.28615 16.4693C7.32317 16.5577 7.36949 16.6433 7.42419 16.716C7.47795 16.7875 7.54575 16.8545 7.62828 16.8942L7.62827 16.8942L7.63043 16.8952C7.71298 16.9333 7.80627 16.9407 7.89299 16.9346C7.9813 16.9285 8.07404 16.9076 8.16343 16.8785C8.34119 16.8207 8.52289 16.725 8.65375 16.6212L8.65423 16.6208C9.39228 16.0304 10.1937 15.7004 11.1331 15.6772C11.3409 15.6732 11.4886 15.6767 11.5924 15.6932C11.6993 15.7101 11.7266 15.736 11.7342 15.7466C11.742 15.7573 11.7576 15.7913 11.7405 15.8972C11.7238 16 11.6819 16.1391 11.6158 16.3313C11.5409 16.5457 11.4572 16.7643 11.3724 16.9856C11.2333 17.3489 11.0913 17.7196 10.9811 18.0906C10.81 18.667 10.7049 19.2726 10.7799 19.9306C9.35565 20.6174 8.40101 21.7534 7.93588 23.2771L7.93578 23.2774C7.67093 24.1523 7.43705 25.0468 7.29168 25.9513H7.29168L7.29161 25.9517C7.22194 26.3936 7.17305 26.743 7.16977 27.0093C7.16656 27.271 7.20591 27.4936 7.35603 27.6423C7.50601 27.7909 7.72948 27.8288 7.9928 27.8238C8.26085 27.8187 8.61255 27.7673 9.0585 27.6936ZM9.0585 27.6936L9.03491 27.5497M9.0585 27.6936C9.05856 27.6936 9.05862 27.6936 9.05867 27.6936L9.03491 27.5497M9.03491 27.5497C7.24375 27.8456 7.1558 27.7496 7.43566 25.9744M9.03491 27.5497C11.4738 27.1499 13.8246 26.5662 14.9201 24.1673C15.1447 24.1334 15.3555 24.1062 15.5567 24.0804C15.9716 24.027 16.3451 23.979 16.7113 23.8874L7.43566 25.9744M7.43566 25.9744C7.5796 25.0789 7.81149 24.1913 8.07536 23.3197L7.43566 25.9744ZM9.6906 26.1424C9.73608 26.1312 9.7816 26.12 9.82712 26.1089C11.1819 25.7772 12.5426 25.444 13.4168 24.1753L10.4318 22.0571C10.4316 22.0573 10.4313 22.0575 10.4311 22.0577M9.6906 26.1424L9.65613 26.0007C9.65602 26.0007 9.65591 26.0007 9.6558 26.0007M9.6906 26.1424L9.6558 26.0007M9.6906 26.1424C9.48235 26.193 9.26221 26.2239 9.04413 26.2544C8.95239 26.2673 8.86101 26.2801 8.77103 26.2943C8.70706 26.2463 8.6351 26.1983 8.56313 26.1504L9.81957 22.858M9.6558 26.0007C9.69587 25.9909 9.7359 25.9811 9.77588 25.9713C11.1444 25.6359 12.4546 25.3148 13.2967 24.0926L13.297 24.0922L13.325 24.0518C13.4705 23.8419 13.5757 23.6901 13.6454 23.5662C13.7195 23.4345 13.7399 23.3567 13.7361 23.2959C13.7324 23.2367 13.7039 23.1668 13.6146 23.0555C13.5244 22.9432 13.3886 22.808 13.1943 22.6157L13.1938 22.6152L12.9219 22.3433L12.65 22.0715C12.3776 21.7991 12.1692 21.6025 11.991 21.4733C11.8138 21.3449 11.6817 21.2947 11.5614 21.2936C11.4407 21.2924 11.3052 21.3405 11.1207 21.4668C10.9357 21.5935 10.717 21.7878 10.4311 22.0577M9.6558 26.0007C9.45499 26.0496 9.24656 26.0788 9.03194 26.1088C8.95811 26.1192 8.88355 26.1296 8.80831 26.141C8.7849 26.1243 8.76096 26.1077 8.73693 26.0914C8.8679 25.7022 8.99573 25.3126 9.1234 24.9236C9.35044 24.2317 9.57694 23.5414 9.81957 22.858M10.4311 22.0577C10.1744 22.3064 9.92675 22.5732 9.81957 22.858M10.4311 22.0577L9.81957 22.858M7.69154 16.7628C7.47564 16.6589 7.30772 16.2111 7.32372 15.9312L11.7536 16.379C12.0175 15.6113 11.9615 15.5154 11.1299 15.5314C10.1544 15.5554 9.32277 15.8992 8.56313 16.5069C8.33124 16.6908 7.89944 16.8588 7.69154 16.7628ZM19.7304 21.2073L19.7304 21.2073L19.728 21.2086C19.6807 21.2344 19.6298 21.254 19.5798 21.272C17.6267 19.3112 15.6882 17.3728 13.7121 15.4119C14.7723 13.1354 16.1882 11.0446 17.9374 9.16993L17.9375 9.16982C19.9745 6.98223 22.4572 5.46609 25.2315 4.40086L25.2316 4.40089L25.2345 4.39969C25.2842 4.37936 25.3769 4.37429 25.4846 4.39654C25.5909 4.41849 25.677 4.4599 25.7181 4.49801C26.5208 5.28472 27.3175 6.07949 28.1148 6.87478L28.1151 6.87501C28.9124 7.67031 29.7102 8.46615 30.5141 9.25406C30.6332 9.3733 30.6611 9.4623 30.6618 9.54039C30.6625 9.63219 30.6271 9.73105 30.5687 9.88118L30.5684 9.88206C28.8068 14.5004 25.6572 17.8821 21.4128 20.3224C21.021 20.5438 20.6223 20.7484 20.2183 20.9557C20.0565 21.0387 19.8938 21.1222 19.7304 21.2073ZM12.1698 10.0249L12.1703 10.0247C13.0958 9.56549 14.0272 9.72823 14.9377 10.1904C14.3308 11.1731 13.7274 12.156 13.1224 13.1414C12.8968 13.5088 12.6711 13.8765 12.4448 14.2447C11.2925 13.9717 10.1483 14.1017 8.95229 14.5771C9.51991 12.5936 10.3196 10.9352 12.1698 10.0249ZM12.4073 18.9792L12.4074 18.9792L12.4081 18.9759C12.5189 18.4507 12.6894 17.9459 12.8594 17.4426C12.8937 17.341 12.928 17.2394 12.9618 17.1377C14.5984 18.7743 16.1957 20.3719 17.8392 22.0224C17.7483 22.0518 17.657 22.0815 17.5655 22.1113C16.9685 22.3055 16.3598 22.5036 15.7403 22.6585L15.7389 22.6588C15.7017 22.6685 15.6237 22.6568 15.512 22.6C15.4079 22.5471 15.3034 22.4697 15.2286 22.3985C14.3263 21.5361 13.4337 20.6594 12.5896 19.7437C12.519 19.6634 12.4576 19.5326 12.4222 19.3838C12.3868 19.2348 12.382 19.0868 12.4073 18.9792ZM24.7536 20.0363C25.4375 21.1363 25.3943 22.4419 24.5756 23.519C23.5482 24.8642 22.1324 25.5634 20.4101 26.0451C20.8726 24.8439 21.0424 23.6939 20.7428 22.4955C20.9571 22.3738 21.1725 22.254 21.3877 22.1342C21.8659 21.8682 22.3438 21.6023 22.8087 21.317C23.3018 21.0144 23.7809 20.6912 24.2576 20.3696C24.4231 20.258 24.5882 20.1466 24.7536 20.0363ZM27.2565 3.62493C28.217 3.42573 29.1706 3.23082 30.1216 3.03644C30.8447 2.88863 31.5663 2.74113 32.2883 2.59229L32.3407 2.64465L32.3933 2.69729C32.2201 3.55544 32.045 4.41375 31.8689 5.27682L31.8641 5.30006C31.6991 6.1089 31.5333 6.92195 31.3673 7.74276C29.9748 6.34348 28.6557 5.02416 27.2565 3.62493Z" fill="#F22F46" stroke="#F22F46" stroke-width="0.291667"/>
<path d="M6.97455 23.5108L7.03121 23.4227L6.96575 23.3409C6.918 23.2812 6.87844 23.2188 6.83597 23.1517C6.81032 23.1112 6.7836 23.0691 6.75339 23.0249C6.71728 22.972 6.67597 22.9168 6.62921 22.8727C6.58435 22.8304 6.522 22.7864 6.44205 22.776C6.29634 22.7494 6.12429 22.7501 5.96458 22.7799C5.80673 22.8092 5.64012 22.8709 5.52646 22.9839C4.44311 24.0242 3.38312 25.0884 2.32266 26.1532C2.00446 26.4726 1.68622 26.7921 1.3673 27.1111C1.20175 27.2766 1.06891 27.4699 1.03729 27.6836C1.00406 27.9083 1.08664 28.1253 1.28976 28.3192L1.28982 28.3193C1.48929 28.5095 1.7065 28.5807 1.92785 28.5412C2.1385 28.5036 2.32834 28.3697 2.4931 28.2049C2.83488 27.8631 3.17671 27.5218 3.51847 27.1805C4.54359 26.1569 5.56799 25.134 6.58777 24.1022L6.58779 24.1023L6.59007 24.0998C6.66961 24.0156 6.73228 23.9181 6.79036 23.8203C6.80983 23.7875 6.82857 23.7551 6.84739 23.7225C6.88699 23.654 6.92691 23.5849 6.97455 23.5108Z" fill="#F22F46" stroke="#F22F46" stroke-width="0.291667"/>
<path d="M7.28579 28.9094L7.34806 28.8145L7.27137 28.7309C7.2178 28.6724 7.17203 28.6075 7.12195 28.5365C7.09534 28.4987 7.06751 28.4592 7.03665 28.4181C6.99591 28.3638 6.95008 28.3076 6.89901 28.2619C6.84822 28.2165 6.78285 28.1729 6.70219 28.1582L6.70219 28.1582L6.69932 28.1577C6.5508 28.1337 6.37966 28.1487 6.22335 28.1909C6.06799 28.2327 5.91112 28.3058 5.79977 28.4121L5.79977 28.4121L5.79887 28.413C4.72207 29.4586 3.6596 30.5239 2.59755 31.5887C2.29442 31.8926 1.99133 32.1965 1.68795 32.4999C1.52218 32.6615 1.38851 32.8514 1.35096 33.0629C1.3116 33.2847 1.38232 33.5039 1.57292 33.7038L1.57297 33.7039C1.76686 33.907 1.98392 33.9896 2.20856 33.9563C2.42229 33.9247 2.61556 33.7919 2.78111 33.6263C3.12297 33.2845 3.46489 32.943 3.80673 32.6017C4.83167 31.5783 5.85589 30.5555 6.87549 29.5239C6.96034 29.439 7.02364 29.3426 7.0839 29.2425C7.10266 29.2113 7.12098 29.1801 7.13967 29.1482C7.18308 29.0742 7.22847 28.9968 7.28579 28.9094Z" fill="#F22F46" stroke="#F22F46" stroke-width="0.291667"/>
<path d="M12.3818 28.8888L12.4381 28.7971L12.367 28.7163C12.3282 28.6722 12.2907 28.6217 12.2521 28.5675C12.2423 28.5537 12.2322 28.5394 12.222 28.5249C12.1937 28.4847 12.1642 28.4428 12.1356 28.4053C12.0966 28.3542 12.0517 28.3008 12.0006 28.2596C11.9513 28.2197 11.8853 28.1822 11.8041 28.1792C11.6598 28.1622 11.4938 28.1718 11.3389 28.2078C11.1833 28.244 11.0234 28.3105 10.9094 28.4193L10.9094 28.4193L10.9085 28.4201C9.8317 29.4658 8.76924 30.531 7.7072 31.5959C7.40406 31.8998 7.10097 32.2037 6.79758 32.507C6.63351 32.6671 6.4957 32.8539 6.45325 33.0637C6.40846 33.285 6.47483 33.5053 6.66541 33.7098L6.66571 33.7101C6.87303 33.9312 7.1017 34.011 7.33545 33.9643C7.55402 33.9205 7.74945 33.7709 7.9157 33.6006C8.58691 32.9214 9.26216 32.2461 9.93777 31.5705L9.93783 31.5704C10.6134 30.8948 11.2894 30.2189 11.9614 29.5388L11.9614 29.5389L11.9634 29.5368C12.0509 29.4447 12.1195 29.3394 12.1832 29.2316C12.2108 29.1848 12.2362 29.1399 12.2618 29.0948C12.2989 29.0293 12.3364 28.963 12.3818 28.8888Z" fill="#F22F46" stroke="#F22F46" stroke-width="0.291667"/>
<path d="M4.57435 20.3695C4.37311 20.6034 4.40737 20.8977 4.5525 21.116C4.69649 21.3326 4.95909 21.4964 5.26411 21.5059L5.28242 21.5065L5.3003 21.5025C5.31081 21.5002 5.32624 21.4981 5.35502 21.4942C5.38077 21.4907 5.41372 21.4861 5.44814 21.479C5.51408 21.4653 5.60535 21.4387 5.67861 21.3721L5.6787 21.3722L5.68301 21.3679C5.76628 21.2857 5.8499 21.2033 5.93369 21.1207C6.52394 20.5392 7.12328 19.9488 7.67325 19.3213L7.67333 19.3212C7.73054 19.2558 7.75182 19.1685 7.75976 19.0961C7.76822 19.0191 7.76413 18.9345 7.75172 18.8533C7.73924 18.7717 7.7176 18.6884 7.68784 18.6135C7.65889 18.5407 7.61834 18.466 7.56274 18.4104L7.56278 18.4103L7.55992 18.4076C7.50273 18.3534 7.42684 18.3135 7.35258 18.2848C7.2764 18.2553 7.19196 18.2338 7.10953 18.2214C7.02758 18.209 6.94253 18.2049 6.86567 18.2134C6.79481 18.2212 6.70629 18.2422 6.64162 18.3019C5.92048 18.9509 5.21179 19.6272 4.57435 20.3695ZM4.57435 20.3695C4.57436 20.3695 4.57438 20.3695 4.57439 20.3695L4.68494 20.4646M4.57435 20.3695C4.57433 20.3695 4.57431 20.3695 4.5743 20.3696L4.68494 20.4646M4.68494 20.4646C4.38908 20.8084 4.7569 21.3442 5.26866 21.3601L4.68494 20.4646Z" fill="#F22F46" stroke="#F22F46" stroke-width="0.291667"/>
<path d="M16.8932 27.9748L16.9475 27.8821L16.8751 27.8028C16.8225 27.7452 16.7782 27.6821 16.7301 27.6136C16.7072 27.5811 16.6836 27.5474 16.6577 27.5125C16.6207 27.4624 16.5792 27.4104 16.533 27.3672C16.487 27.3243 16.4282 27.2821 16.355 27.2638L16.355 27.2637L16.3491 27.2625C16.2125 27.2342 16.0516 27.235 15.9021 27.2618C15.7546 27.2882 15.6003 27.3432 15.489 27.4385L15.489 27.4385L15.4878 27.4396C15.0531 27.8207 14.6433 28.2383 14.2385 28.6509C14.0952 28.797 13.9525 28.9424 13.8096 29.0854C13.6432 29.2518 13.5134 29.4447 13.4807 29.6571C13.4466 29.8788 13.5222 30.095 13.7124 30.2899L13.7124 30.2899C13.9068 30.4889 14.1239 30.5685 14.3468 30.534C14.5592 30.5012 14.7501 30.3686 14.9121 30.2025C15.0639 30.0507 15.2167 29.8992 15.3699 29.7473C15.7551 29.3654 16.1425 28.9813 16.5209 28.5856L16.5216 28.5849C16.6029 28.4988 16.6642 28.3971 16.7195 28.2958C16.7405 28.2573 16.7602 28.2198 16.7799 28.1822C16.815 28.1152 16.8503 28.048 16.8932 27.9748Z" fill="#F22F46" stroke="#F22F46" stroke-width="0.291667"/>
<path d="M24.1556 7.50081C22.3 7.50098 20.8025 9.01405 20.8276 10.8551L20.8276 10.8551C20.8527 12.6612 22.3398 14.1487 24.1466 14.1655H24.1466C25.9876 14.1822 27.4923 12.6846 27.4923 10.8291C27.4923 8.96567 26.0198 7.49262 24.1556 7.50081ZM24.1556 7.50081C24.1557 7.50081 24.1558 7.50081 24.1559 7.50081V7.64664L24.1553 7.50081C24.1554 7.50081 24.1555 7.50081 24.1556 7.50081ZM25.9132 10.844L26.059 10.8451C26.067 9.76564 25.2514 8.93403 24.1879 8.92603C23.1244 8.91804 22.2688 9.74964 22.2528 10.7971L25.9132 10.844ZM25.9132 10.844C25.9206 9.84389 25.1686 9.07925 24.1868 9.07186C23.2022 9.06446 22.4134 9.83322 22.3987 10.7994L22.3987 10.7994C22.3839 11.7489 23.1897 12.5716 24.1502 12.5864C25.1152 12.6011 25.9058 11.8201 25.9132 10.844Z" fill="#F22F46" stroke="#F22F46" stroke-width="0.291667"/>
<path d="M21.3351 14.2901L21.3344 14.2393L21.3022 14.1999C21.2907 14.1859 21.2755 14.1625 21.2499 14.1227C21.2265 14.0863 21.1972 14.0408 21.1634 13.9953C21.0982 13.9077 21.002 13.8001 20.8667 13.7487C20.7522 13.7023 20.607 13.688 20.4745 13.6981C20.3437 13.708 20.1966 13.7441 20.0922 13.8253L20.0922 13.8253L20.0916 13.8258C19.7067 14.1288 19.3467 14.4888 19.0437 14.8737L19.0437 14.8737L19.0431 14.8744C18.9616 14.9793 18.9257 15.1289 18.9168 15.261C18.9078 15.3948 18.9242 15.5441 18.9786 15.6583L18.9785 15.6584L18.9811 15.6633C19.0416 15.7788 19.151 15.8759 19.2633 15.9455C19.3766 16.0157 19.5101 16.0688 19.6354 16.0841C19.7215 16.0956 19.8107 16.074 19.8909 16.0424C19.9738 16.0097 20.0611 15.9607 20.1484 15.9021C20.3232 15.7847 20.5112 15.6196 20.6834 15.4381C20.8557 15.2565 21.0165 15.0539 21.1348 14.8592C21.2495 14.6704 21.3378 14.4671 21.3351 14.2901Z" fill="#F22F46" stroke="#F22F46" stroke-width="0.291667"/>
<path d="M17.8149 16.5382L17.8435 16.3952C17.7451 16.3755 17.6499 16.4218 17.5875 16.4608C17.5166 16.505 17.4455 16.5671 17.3825 16.6346C17.3191 16.7024 17.2597 16.7801 17.2142 16.8587C17.1702 16.9345 17.132 17.0235 17.1257 17.1116L17.1257 17.1119C17.1137 17.2857 17.2139 17.4465 17.3031 17.5694C17.3412 17.622 17.3833 17.6751 17.4232 17.7255C17.4327 17.7375 17.442 17.7493 17.4512 17.7609C17.5003 17.8232 17.5445 17.881 17.5804 17.9367L17.6235 18.0034H17.7029H17.7036H17.7042H17.7048H17.7054H17.706H17.7066H17.7072H17.7078H17.7084H17.709H17.7096H17.7103H17.7109H17.7115H17.7121H17.7127H17.7133H17.7139H17.7145H17.7151H17.7157H17.7163H17.717H17.7176H17.7182H17.7188H17.7194H17.72H17.7206H17.7212H17.7218H17.7224H17.723H17.7237H17.7243H17.7249H17.7255H17.7261H17.7267H17.7273H17.7279H17.7285H17.7291H17.7297H17.7304H17.731H17.7316H17.7322H17.7328H17.7334H17.734H17.7346H17.7352H17.7358H17.7364H17.7371H17.7377H17.7383H17.7389H17.7395H17.7401H17.7407H17.7413H17.7419H17.7425H17.7431H17.7438H17.7444H17.745H17.7456H17.7462H17.7468H17.7474H17.748H17.7486H17.7492H17.7498H17.7505H17.7511H17.7517H17.7523H17.7529H17.7535H17.7541H17.7547H17.7553H17.7559H17.7565H17.7572H17.7578H17.7584H17.759H17.7596H17.7602H17.7608H17.7614H17.762H17.7626H17.7632H17.7639H17.7645H17.7651H17.7657H17.7663H17.7669H17.7675H17.7681H17.7687H17.7693H17.7699H17.7706H17.7712H17.7718H17.7724H17.773H17.7736H17.7742H17.7748H17.7754H17.776H17.7766H17.7773H17.7779H17.7785H17.7791H17.7797H17.7803H17.7809H17.7815H17.7821H17.7827H17.7833H17.784H17.7846H17.7852H17.7858H17.7864H17.787H17.7876H17.7882H17.7888H17.7894H17.79H17.7907H17.7913H17.7919H17.7925H17.7931H17.7937H17.7943H17.7949H17.7955H17.7961H17.7967H17.7974H17.798H17.7986H17.7992H17.7998H17.8004H17.801H17.8016H17.8022H17.8028H17.8034H17.8041H17.8047H17.8053H17.8059H17.8065H17.8071H17.8077H17.8083H17.8089H17.8095H17.8101H17.8108H17.8114H17.812H17.8126H17.8132H17.8138H17.8144H17.815H17.8156H17.8162H17.8168H17.8175H17.8181H17.8187H17.8193H17.8199H17.8205H17.8211H17.8217H17.8223H17.8229H17.8235H17.8242H17.8248H17.8254H17.826H17.8266H17.8272H17.8278H17.8284H17.829H17.8296H17.8302H17.8309H17.8315H17.8321H17.8327H17.8333H17.8339H17.8345H17.8351H17.8357H17.8363H17.8369H17.8376H17.8382H17.8388H17.8394H17.84H17.8406H17.8412H17.8418H17.8424H17.843H17.8436H17.8443H17.8449H17.8455H17.8461H17.8467H17.8473H17.8479H17.8485H17.8491H17.8497H17.8503H17.851H17.8516H17.8522H17.8528H17.8534H17.854H17.8546H17.8552H17.8558H17.8564H17.857H17.8577H17.8583H17.8589H17.8595H17.8601H17.8607H17.8613H17.8619H17.8625H17.8631H17.8637H17.8644H17.865H17.8656H17.8662H17.8668H17.8674H17.868H17.8686H17.8692H17.8698H17.8704H17.8711H17.8717H17.8723H17.8729H17.8735H17.8741H17.8747H17.8753H17.8759H17.8765H17.8771H17.8778H17.8784H17.879H17.8796H17.8802H17.8808H17.8814H17.882H17.8826H17.8832H17.8838H17.8845H17.8851H17.8857H17.8863H17.8869H17.8875H17.8881H17.8887H17.8893H17.8899H17.8905H17.8912H17.8918H17.8924H17.893H17.8936H17.8942H17.8948H17.8954H17.896H17.8966H17.8972H17.8979H17.8985H17.8991H17.8997H17.9003H17.9009H17.9015H17.9021H17.9027H17.9033H17.9039H17.9046H17.9052H17.9058H17.9064H17.907H17.9076H17.9082H17.9088H17.9094H17.91H17.9106H17.9113H17.9119H17.9125H17.9131H17.9137H17.9143H17.9149H17.9155H17.9161H17.9167H17.9173H17.918H17.9186H17.9192H17.9198H17.9204H17.921H17.9216H17.9222H17.9228H17.9234H17.924H17.9247H17.9253H17.9259H17.9265H17.9271H17.9277H17.9283H17.9289H17.9295H17.9301H17.9307H17.9314H17.932H17.9326H17.9332H17.9338H17.9344H17.935H17.9356H17.9362H17.9368H17.9374H17.9381H17.9387H17.9393H17.9399H17.9405H17.9411H17.9417H17.9423H17.9429H17.9435H17.9441H17.9448H17.9454H17.946H17.9466H17.9472H17.9478H17.9484H17.949H17.9496H17.9502H17.9508H17.9515H17.9521H17.9527H17.9533H17.9539H17.9545H17.9551H17.9557H17.9563H17.9569H17.9575H17.9582H17.9588H17.9594H17.96H17.9606H17.9612H17.9618H17.9624H17.963H17.9636H17.9642H17.9649H17.9655H17.9661H17.9667H17.9673H17.9679H17.9685H17.9691H17.9697H17.9703H17.9709H17.9716H17.9722H17.9728H17.9734H17.974H17.9746H17.9752H17.9758H17.9764H17.977H17.9776H17.9783H17.9789H17.9795H17.9801H17.9807H17.9813H17.9819H17.9825H17.9831H17.9837H17.9843H17.985H17.9856H17.9862H17.9868H17.9874H17.988H17.9886H17.9892H17.9898H17.9904H17.991H17.9917H17.9923H17.9929H17.9935H17.9941H17.9947H17.9953H17.9959H17.9965H17.9971H17.9977H17.9984H17.999H17.9996H18.0002H18.0008H18.0014H18.002H18.0026H18.0032H18.0038H18.0044H18.0051H18.0057H18.0063H18.0069H18.0075H18.0081H18.0087H18.0093H18.0099H18.0105H18.0111H18.0118H18.0124H18.013H18.0136H18.0142H18.0148H18.0943L18.1373 17.9367C18.1728 17.8817 18.2185 17.8229 18.2702 17.7588C18.2814 17.7449 18.293 17.7306 18.3047 17.7161C18.3453 17.6662 18.388 17.6135 18.4264 17.5621C18.476 17.4958 18.5247 17.4237 18.5581 17.3499C18.5911 17.2768 18.6158 17.188 18.5978 17.0944L18.5978 17.0944L18.5976 17.0933C18.5647 16.9287 18.4421 16.7686 18.3104 16.6498C18.1769 16.5295 18.0053 16.4256 17.8418 16.3949L17.8149 16.5382ZM17.8149 16.5382C18.0708 16.5862 18.4066 16.8821 18.4546 17.1219C18.4823 17.2659 18.3375 17.4443 18.1927 17.6227C18.1284 17.702 18.064 17.7813 18.0148 17.8576H17.7029C17.6551 17.7834 17.5958 17.7086 17.5366 17.6338C17.398 17.4588 17.2599 17.2845 17.2711 17.1219C17.2871 16.8981 17.655 16.5062 17.8149 16.5382Z" fill="#F22F46" stroke="#F22F46" stroke-width="0.291667"/>
</svg>
