<svg width="26" height="29" viewBox="0 0 26 29" fill="none" xmlns="http://www.w3.org/2000/svg">
<path fill-rule="evenodd" clip-rule="evenodd" d="M12.7101 26.9526C12.8536 27.0308 13.0101 27.083 13.1666 27.083C13.3231 27.083 13.4797 27.0308 13.6231 26.9395C13.9884 26.7047 22.5188 20.9265 22.5188 13.9352C22.5188 11.4439 21.5405 9.08301 19.7797 7.32214C18.0058 5.56127 15.6579 4.58301 13.1666 4.58301C10.6753 4.58301 8.3275 5.56127 6.55358 7.32214C4.79271 9.09605 3.81445 11.4439 3.81445 13.9352C3.81445 20.777 11.9964 26.457 12.6764 26.9291C12.6913 26.9394 12.7026 26.9473 12.7101 26.9526ZM7.70141 8.48301C9.16228 7.02214 11.1058 6.21344 13.1666 6.21344C15.2275 6.21344 17.171 7.02214 18.6318 8.46996C20.0797 9.93083 20.8884 11.8743 20.8884 13.9352C20.8884 19.2178 14.8884 24.0047 13.1666 25.27C11.4449 24.0047 5.44489 19.2178 5.44489 13.9352C5.44489 11.8743 6.25358 9.93083 7.70141 8.48301ZM9.50146 13.9349C9.50146 15.9566 11.1449 17.6001 13.1667 17.6001C15.1884 17.6001 16.8319 15.9566 16.8319 13.9349C16.8319 11.9131 15.1884 10.2697 13.1667 10.2697C11.1449 10.2697 9.50146 11.9131 9.50146 13.9349ZM11.1319 13.9349C11.1319 12.8131 12.0449 11.9001 13.1667 11.9001C14.2884 11.9001 15.2015 12.8131 15.2015 13.9349C15.2015 15.0566 14.2884 15.9697 13.1667 15.9697C12.0449 15.9697 11.1319 15.0566 11.1319 13.9349Z" fill="#B8B8BE"/>
</svg>
