<svg width="30" height="31" viewBox="0 0 30 31" fill="none" xmlns="http://www.w3.org/2000/svg">
<path d="M13.3496 23.0259L13.3494 23.026C11.4994 23.3172 9.70241 23.1876 7.96075 22.5238C7.7824 22.4555 7.60299 22.4199 7.41342 22.442C7.22559 22.4639 7.05882 22.539 6.89984 22.6401L6.8994 22.6404C5.20515 23.7223 3.45567 23.8453 1.63314 22.9939C1.2536 22.8163 1.1338 22.6702 1.09934 22.5616C1.06447 22.4515 1.07937 22.262 1.28208 21.8976C2.16207 20.3159 2.37324 18.6468 1.89165 16.8933C1.81753 16.6234 1.7402 16.358 1.66368 16.0955C1.43754 15.3195 1.21853 14.568 1.11074 13.796C0.640391 10.396 1.67577 7.44417 4.09256 5.05616L4.09266 5.05605C7.18584 1.99698 10.9033 1.02771 15.0206 2.43936C19.133 3.8494 21.516 6.85078 22.2464 11.1701L22.2464 11.1706C22.3007 11.4891 22.314 11.7988 22.3254 12.0668C22.3301 12.1772 22.3345 12.2805 22.3414 12.3745C22.33 17.6597 18.3851 22.2358 13.3496 23.0259ZM2.51123 21.806L2.35403 22.1387L2.70059 22.2624C4.03848 22.7398 5.5963 22.4536 6.70549 21.4824L6.70569 21.4822C6.9111 21.302 7.07832 21.2304 7.23115 21.2131C7.38821 21.1954 7.57367 21.2299 7.824 21.3418C9.73841 22.1986 11.7536 22.3989 13.7845 21.8695L13.7847 21.8694C17.4785 20.9043 20.0411 18.5926 20.9822 14.842C21.9354 11.0512 20.8293 7.71751 17.8505 5.19529L17.8504 5.1952C14.8815 2.68347 11.4637 2.21239 7.87148 3.6832C3.90412 5.30542 0.683407 10.1914 2.60354 15.608L2.60356 15.608C3.34635 17.7026 3.48168 19.7522 2.51123 21.806Z" fill="#F22F46" stroke="#F22F46" stroke-width="0.666667"/>
<path d="M27.0591 28.2713C26.8732 27.5113 26.6468 26.7648 26.5093 26.0048C26.2803 24.7247 26.5066 23.4876 26.9486 22.2749C28.1668 18.9358 27.7356 15.8312 25.585 12.9825C25.1726 12.4382 25.1807 11.9288 25.6092 11.6081C26.0135 11.3063 26.5255 11.4087 26.9109 11.918C29.3957 15.2032 29.9859 18.8118 28.6034 22.6845C27.9242 24.5899 28.0347 26.3659 29.013 28.115C29.3741 28.7618 29.2528 29.2064 28.5953 29.5352C26.671 30.5 24.7792 30.403 22.9573 29.2738C22.6339 29.0744 22.3887 29.0528 22.0356 29.1714C18.2411 30.438 14.7295 29.864 11.5063 27.4951C11.385 27.4062 11.2691 27.3118 11.1613 27.2121C10.7598 26.8375 10.7005 26.3363 11.0077 25.9724C11.3149 25.6086 11.8243 25.5682 12.2555 25.9185C13.4009 26.851 14.6756 27.5167 16.1201 27.8508C18.1468 28.3198 20.1249 28.1796 22.0276 27.3388C22.6016 27.0855 23.0328 27.1286 23.4936 27.5571C24.383 28.3818 26.0916 28.751 27.0591 28.2713Z" fill="#F22F46"/>
<path d="M5.35108 12.5511C5.35647 11.8019 5.94937 11.2224 6.70667 11.2278C7.46127 11.2332 8.04878 11.8234 8.04069 12.5726C8.0353 13.3084 7.41545 13.9201 6.68511 13.912C5.95207 13.9066 5.34839 13.2895 5.35108 12.5511Z" fill="#F22F46"/>
<path d="M11.6362 11.2272C12.3989 11.2164 12.9864 11.7851 12.9945 12.5397C13.0026 13.2862 12.4178 13.9006 11.6794 13.9141C10.9544 13.9276 10.3211 13.3131 10.3049 12.5855C10.2914 11.8497 10.8924 11.238 11.6362 11.2272Z" fill="#F22F46"/>
<path d="M15.2877 12.5478C15.2958 11.7878 15.8887 11.2138 16.654 11.2273C17.3817 11.2408 17.9692 11.8283 17.9773 12.5505C17.9854 13.2782 17.352 13.9142 16.6244 13.9142C15.8833 13.9142 15.2796 13.297 15.2877 12.5478Z" fill="#F22F46"/>
</svg>
