<svg width="26" height="26" viewBox="0 0 26 26" fill="none" xmlns="http://www.w3.org/2000/svg">
<path d="M15.5545 5.88344C16.4897 6.08832 17.3492 6.60189 18.023 7.35842C18.6967 8.11495 19.1541 9.08003 19.3366 10.1301M15.5545 1.58301C17.4975 1.82538 19.3094 2.80237 20.6926 4.35357C22.0758 5.90477 22.9482 7.93799 23.1665 10.1194M22.209 18.6987V21.9241C22.2101 22.2235 22.1555 22.5199 22.0487 22.7942C21.9418 23.0685 21.7851 23.3148 21.5886 23.5172C21.3922 23.7196 21.1602 23.8738 20.9076 23.9697C20.655 24.0656 20.3873 24.1012 20.1217 24.0743C17.1754 23.7148 14.3452 22.5843 11.8586 20.7737C9.5452 19.123 7.5838 16.9207 6.11375 14.323C4.49558 11.5183 3.48856 8.32501 3.17428 5.00185C3.15035 4.70455 3.18182 4.40491 3.26667 4.12201C3.35153 3.83911 3.48792 3.57915 3.66715 3.35868C3.84639 3.13821 4.06455 2.96206 4.30773 2.84145C4.55092 2.72083 4.81381 2.6584 5.07967 2.65812H7.95211C8.41678 2.65298 8.86727 2.83774 9.21959 3.17797C9.57191 3.51819 9.80204 3.99066 9.86708 4.5073C9.98832 5.53948 10.2132 6.55294 10.5373 7.52836C10.6661 7.91317 10.694 8.33137 10.6177 8.73343C10.5413 9.13548 10.3639 9.50453 10.1064 9.79684L8.89044 11.1622C10.2535 13.8538 12.2382 16.0824 14.6353 17.6129L15.8513 16.2475C16.1117 15.9584 16.4403 15.7592 16.7984 15.6735C17.1565 15.5877 17.5289 15.619 17.8716 15.7637C18.7403 16.1277 19.6429 16.3801 20.5622 16.5163C21.0273 16.5899 21.452 16.853 21.7557 17.2554C22.0593 17.6578 22.2207 18.1715 22.209 18.6987Z" stroke="#B8B8BE" stroke-width="1.875" stroke-linecap="round" stroke-linejoin="round"/>
</svg>
