<svg width="32" height="16" viewBox="0 0 32 16" fill="none" xmlns="http://www.w3.org/2000/svg">
<path d="M10.3318 5.76311C9.78775 5.7187 9.23262 5.75756 8.64419 5.75756C8.42769 6.8567 8.22229 7.93365 8.00024 9.0772C8.45545 9.0772 8.84959 9.0883 9.23818 9.0772C10.6038 9.04389 11.3088 8.34444 11.3699 6.97883C11.4032 6.185 11.1256 5.82972 10.3318 5.76311Z" fill="#E8E8EA"/>
<path d="M24.2878 5.863C23.7215 5.72978 23.1165 5.75198 22.528 5.75753C22.4226 5.75753 22.2449 5.95183 22.2116 6.0795C22.0062 7.04542 21.8341 8.01134 21.6343 9.05497C22.2172 9.05497 22.7334 9.09938 23.2386 9.04942C24.421 8.92174 25.2703 7.72267 24.9706 6.55691C24.8984 6.2738 24.5653 5.92407 24.2878 5.863Z" fill="#E8E8EA"/>
<path d="M29.6501 4.51412C28.7841 3.64812 27.7294 2.92091 26.6525 2.32138C24.4486 1.09455 22.0172 0.511672 19.5302 0.223007C15.2447 -0.276605 11.0368 0.017611 6.9733 1.57196C4.97486 2.33803 3.13185 3.36501 1.81065 5.12476C0.428393 6.97332 0.439501 9.03838 1.81621 10.8925C2.9098 12.3636 4.40863 13.3128 6.0518 14.0512C9.21045 15.4723 12.5523 15.9885 15.9885 15.9996C18.8807 16.0107 21.7063 15.6222 24.4431 14.6562C26.4027 13.9679 28.229 13.0408 29.6779 11.5031C31.7207 9.3215 31.7596 6.62914 29.6501 4.51412ZM23.7381 10.2819C22.9775 10.3707 22.2059 10.3596 21.3843 10.3984C21.2456 11.0757 21.1012 11.764 20.9624 12.458H19.2249C19.7467 9.78225 20.2574 7.15096 20.7626 4.53077C22.2004 4.53077 23.566 4.44195 24.9149 4.55298C26.2139 4.65845 26.8579 5.53 26.8301 6.81789C26.7968 8.65535 25.5533 10.0709 23.7381 10.2819ZM17.9592 6.92336C18.1369 6.01295 17.9426 5.77425 17.0155 5.75205C16.5825 5.74094 16.1495 5.75205 15.6555 5.75205C15.4223 6.92336 15.1947 8.07802 14.9616 9.23268C14.734 10.3651 14.734 10.3651 13.5737 10.3596C13.4183 10.3596 13.2629 10.3596 13.0131 10.3596C13.5349 7.66167 14.0511 5.02483 14.5674 2.35469H16.2828C16.1606 3.04859 16.044 3.71474 15.9219 4.40865C16.7268 4.4475 17.5151 4.44195 18.2978 4.53632C19.558 4.69176 19.991 5.25243 19.7911 6.51812C19.5913 7.7838 19.3137 9.03838 19.0639 10.3263H17.3042C17.5262 9.16606 17.7427 8.04471 17.9592 6.92336ZM8.51101 10.3429C7.86151 10.2763 7.63945 10.5317 7.57839 11.1257C7.53398 11.5698 7.41185 12.0139 7.32303 12.4635H5.59105C5.77424 11.5142 5.94632 10.6149 6.12396 9.71008C6.43483 8.10022 6.7457 6.49036 7.07322 4.88605C7.10653 4.72507 7.30083 4.47526 7.42295 4.47526C8.61092 4.45305 9.80444 4.39754 10.9813 4.50302C12.741 4.65845 13.4849 5.7798 13.1241 7.534C12.8243 9.00508 11.6586 10.1042 10.1653 10.2819C9.6157 10.3429 9.05503 10.404 8.51101 10.3429Z" fill="#E8E8EA"/>
</svg>
