<svg width="30" height="32" viewBox="0 0 30 32" fill="none" xmlns="http://www.w3.org/2000/svg">
<path d="M14.9619 8.56373C14.9619 8.24857 14.9619 8.01635 14.9619 7.70119C12.5899 7.70119 10.2179 7.70119 7.68554 7.70119C7.77401 6.18621 7.76848 4.75417 7.962 3.34424C8.0947 2.38771 8.87983 1.81268 9.77555 1.58046C10.9311 1.28188 12.1199 1.04966 13.3031 0.922491C15.172 0.723442 17.0463 0.834025 18.8931 1.21553C20.5076 1.54728 22.3045 2.86874 22.2216 5.34026C22.1497 7.40815 22.2105 9.48156 22.205 11.5495C22.1995 13.9159 20.6845 15.442 18.3291 15.453C16.1009 15.4585 13.8726 15.453 11.6444 15.4585C8.80795 15.4641 6.84512 17.4269 6.83959 20.2523C6.83959 21.2144 6.83959 22.1819 6.83959 23.238C5.56236 23.1772 4.30725 23.4426 3.08532 23.0224C2.00714 22.6464 1.316 21.8281 0.92896 20.7997C-0.243213 17.7034 -0.326148 14.5573 0.796262 11.4333C1.45976 9.59215 3.06873 8.58032 5.13662 8.56926C8.15552 8.55267 11.1689 8.56373 14.1878 8.56373C14.4255 8.56373 14.6633 8.56373 14.9619 8.56373ZM10.9201 3.08438C10.1681 3.07885 9.57097 3.66493 9.55438 4.41689C9.53779 5.18544 10.1681 5.82682 10.9201 5.81576C11.6499 5.8047 12.2637 5.17991 12.2581 4.44454C12.2637 3.69258 11.6665 3.0899 10.9201 3.08438Z" fill="#F22F46"/>
<path d="M23.0894 8.66889C24.328 8.66889 25.4946 8.56937 26.6336 8.69654C27.7118 8.81818 28.4748 9.60331 28.8121 10.582C29.271 11.9145 29.647 13.2912 29.8737 14.679C30.2386 16.8962 29.7852 19.0249 28.8618 21.0652C28.1928 22.547 27.1423 23.2989 25.4449 23.2658C22.1937 23.1994 18.9426 23.2492 15.686 23.2492C15.4759 23.2492 15.2602 23.2492 15.0169 23.2492C15.0169 23.5754 15.0169 23.8408 15.0169 24.1559C17.3889 24.1559 19.7499 24.1559 22.2877 24.1559C22.1937 25.4719 22.2324 26.7602 21.9781 27.9876C21.7403 29.1487 20.7285 29.7735 19.6835 30.2048C17.1235 31.2553 14.4861 31.4986 11.8211 30.708C10.8756 30.426 9.9412 30.0002 9.10078 29.475C8.16636 28.8944 7.74062 27.9434 7.74615 26.8044C7.76826 24.5762 7.74062 22.3479 7.7572 20.1197C7.76826 17.9467 9.36618 16.371 11.5502 16.371C13.8392 16.3654 16.1228 16.3765 18.4118 16.371C21.0547 16.3599 23.0397 14.4026 23.0894 11.7541C23.106 10.7036 23.0894 9.66413 23.0894 8.66889ZM17.6986 27.3739C17.693 28.1314 18.2736 28.7451 19.009 28.7672C19.7499 28.7838 20.3968 28.1369 20.3912 27.3739C20.3857 26.6219 19.7886 26.0303 19.0366 26.0303C18.2846 26.0248 17.7041 26.6053 17.6986 27.3739Z" fill="#F22F46"/>
</svg>
