<svg width="37" height="41" viewBox="0 0 37 41" fill="none" xmlns="http://www.w3.org/2000/svg">
<path d="M7.0624 19.1236C8.03819 19.1236 8.88425 19.1236 9.73596 19.1236C11.3209 19.1236 12.669 19.6989 13.7745 20.8326C14.3273 21.4023 14.8575 22.0002 15.4215 22.5586C17.1644 24.2902 19.6969 24.2902 21.4342 22.5642C21.8572 22.1469 22.2746 21.7182 22.6638 21.267C23.9949 19.7158 25.6645 18.9995 27.712 19.1236C28.3606 19.1631 29.0093 19.1292 29.7143 19.1292C29.6917 19.1518 29.7651 19.1123 29.7651 19.0672C29.7369 16.2019 29.7651 13.3365 29.6579 10.4768C29.6015 8.91444 28.8006 8.10786 27.2325 7.69611C26.6572 7.54382 26.0593 7.49306 25.4784 7.37461C24.7338 7.22232 24.2995 6.63007 24.3672 5.89682C24.4292 5.19177 25.0158 4.61645 25.7604 4.68413C28.919 4.97743 32.1566 6.08295 32.4104 10.7589C32.5627 13.5621 32.495 16.3767 32.5514 19.1856C32.5571 19.4789 32.6642 19.9358 32.8673 20.0317C35.0727 21.0977 35.947 22.9873 36.0711 25.2716C36.2177 27.9057 36.37 30.5511 35.7778 33.1569C34.8753 37.1222 31.9648 39.6096 27.7232 39.8972C25.2076 40.0665 22.6751 40.0439 20.1482 40.0439C16.4029 40.0383 12.6521 40.0439 8.90682 39.8916C7.60388 39.8408 6.2671 39.4799 5.03185 39.023C2.49366 38.081 1.10612 36.073 0.931268 33.4502C0.739494 30.5172 0.773337 27.556 0.897426 24.6174C0.982032 22.6319 2.00859 21.0921 3.83044 20.1276C4.08426 19.9922 4.29296 19.5297 4.30424 19.2082C4.37756 16.3993 4.30424 13.5847 4.45089 10.7814C4.69907 6.09988 7.91974 4.99435 11.084 4.68977C11.8286 4.61645 12.4152 5.19177 12.4828 5.89682C12.5562 6.66392 12.0993 7.24488 11.2984 7.39717C10.6553 7.51562 10.0067 7.59459 9.38061 7.7638C8.13972 8.10786 7.40083 8.94829 7.21469 10.2287C7.12444 10.8435 7.07368 11.4696 7.06804 12.0956C7.05112 14.4364 7.0624 16.7885 7.0624 19.1236ZM17.6269 37.2068C17.6269 37.2011 17.6269 37.1955 17.6269 37.1898C20.9153 37.1898 24.2149 37.3083 27.4976 37.156C30.7127 37.0093 32.8165 35.1706 33.1719 32.0796C33.4426 29.705 33.3185 27.274 33.2565 24.8768C33.217 23.4329 32.3033 22.4966 30.9101 22.2315C29.6917 22.0002 28.4396 21.9438 27.1987 21.8592C26.3301 21.7972 25.5968 22.1581 24.9989 22.7842C24.4123 23.399 23.8426 24.0364 23.2391 24.6343C20.5599 27.2796 16.3522 27.2966 13.6617 24.6681C13.0525 24.0759 12.5392 23.3765 11.885 22.8406C11.3773 22.4232 10.7343 21.9382 10.1364 21.9212C8.70376 21.8874 7.24289 22.0058 5.83843 22.2709C4.51857 22.5191 3.65559 23.4667 3.61611 24.8317C3.5315 27.4601 3.44125 30.1055 3.59918 32.7283C3.75712 35.3567 5.01493 36.5468 7.61516 37.015C8.11716 37.1052 8.62479 37.2011 9.13243 37.2011C11.9526 37.218 14.7898 37.2068 17.6269 37.2068Z" fill="#1A1B2D"/>
<path d="M20.0466 9.86727C20.3906 9.46116 20.7065 9.01556 21.0901 8.64894C21.6992 8.07926 22.455 8.09618 22.9965 8.62074C23.5436 9.15093 23.5606 9.99136 22.9683 10.6005C21.8008 11.8019 20.6163 12.9864 19.4092 14.1483C18.7944 14.7462 18.0555 14.7462 17.4351 14.1483C16.2111 12.9639 15.004 11.7624 13.8196 10.5328C13.2724 9.96315 13.3119 9.13401 13.8421 8.62074C14.361 8.1131 15.1112 8.06797 15.6865 8.59253C16.0983 8.9648 16.4198 9.43295 16.7864 9.85599C16.8767 9.80522 16.9669 9.74882 17.0572 9.69805C17.0572 8.94788 17.0572 8.1977 17.0572 7.44753C17.0572 6.02614 17.0572 4.6104 17.0572 3.18902C17.0572 1.64354 17.4576 0.972332 18.3996 0.955411C19.3472 0.938489 19.7871 1.63226 19.7871 3.14953C19.7871 5.33237 19.7871 7.51521 19.7871 9.7037C19.8774 9.75446 19.962 9.81086 20.0466 9.86727Z" fill="#1A1B2D"/>
</svg>
