<svg width="25" height="26" viewBox="0 0 25 26" fill="none" xmlns="http://www.w3.org/2000/svg">
<path d="M1.875 12.333C1.32272 12.333 0.875 12.7807 0.875 13.333C0.875 13.8853 1.32272 14.333 1.875 14.333L1.875 12.333ZM23.8321 14.0401C24.2226 13.6496 24.2226 13.0164 23.8321 12.6259L17.4681 6.26194C17.0776 5.87142 16.4445 5.87142 16.0539 6.26194C15.6634 6.65246 15.6634 7.28563 16.0539 7.67615L21.7108 13.333L16.0539 18.9899C15.6634 19.3804 15.6634 20.0136 16.0539 20.4041C16.4445 20.7946 17.0776 20.7946 17.4681 20.4041L23.8321 14.0401ZM1.875 14.333L23.125 14.333V12.333L1.875 12.333L1.875 14.333Z" fill="#666672"/>
</svg>
