<svg width="20" height="20" viewBox="0 0 20 20" fill="none" xmlns="http://www.w3.org/2000/svg">
<path fill-rule="evenodd" clip-rule="evenodd" d="M9 2.5265C5.42479 2.5265 2.5265 5.42479 2.5265 9C2.5265 12.5752 5.42479 15.4735 9 15.4735C12.5752 15.4735 15.4735 12.5752 15.4735 9C15.4735 5.42479 12.5752 2.5265 9 2.5265ZM1 9C1 4.58172 4.58172 1 9 1C13.4183 1 17 4.58172 17 9C17 13.4183 13.4183 17 9 17C4.58172 17 1 13.4183 1 9Z" fill="#484957"/>
<path fill-rule="evenodd" clip-rule="evenodd" d="M14.2047 14.2047C14.4775 13.9318 14.92 13.9318 15.1929 14.2047L18.7953 17.8071C19.0682 18.08 19.0682 18.5225 18.7953 18.7953C18.5225 19.0682 18.08 19.0682 17.8071 18.7953L14.2047 15.1929C13.9318 14.92 13.9318 14.4775 14.2047 14.2047Z" fill="#484957"/>
</svg>
