<svg width="30" height="31" viewBox="0 0 30 31" fill="none" xmlns="http://www.w3.org/2000/svg">
<path d="M26.5895 10.4483C26.6711 13.2681 26.5576 16.0737 25.8021 18.8084C24.5181 23.4726 21.5316 26.6613 17.1441 28.5518C14.6151 29.6442 15.3919 29.6478 12.8523 28.5447C7.60291 26.264 4.60576 22.2312 3.73677 16.5739C3.22956 13.2717 3.4211 9.95533 3.43529 6.64252C3.43883 6.00052 3.86446 5.72387 4.60222 5.64583C6.03162 5.49332 7.47877 5.39046 8.8727 5.07123C10.8554 4.61723 12.5579 3.5567 14.0547 2.17696C14.8386 1.45339 15.1756 1.44629 15.9381 2.15567C18.3997 4.45053 21.3578 5.50041 24.6742 5.64229C24.9437 5.65293 25.2169 5.64583 25.4864 5.65647C26.2242 5.6884 26.5824 6.03599 26.5895 6.7702C26.5966 7.99743 26.5895 9.22466 26.5895 10.4483ZM5.37899 7.59309C5.31515 10.4554 5.21583 13.2575 5.5989 16.056C6.27281 20.9969 8.81595 24.5331 13.3489 26.6826C14.53 27.243 15.5054 27.2536 16.6794 26.6755C19.9036 25.09 22.358 22.8306 23.603 19.3937C24.1705 17.8259 24.5181 16.1979 24.5678 14.5379C24.6387 12.2395 24.5855 9.93759 24.5855 7.61082C24.4188 7.58954 24.2415 7.56116 24.0677 7.55052C20.7761 7.33416 17.8003 6.29492 15.2607 4.1384C14.9947 3.9114 14.8528 4.06746 14.6683 4.21998C13.5085 5.18119 12.2281 5.94377 10.827 6.50064C9.0997 7.18874 7.29078 7.47604 5.37899 7.59309Z" fill="#484957"/>
<path d="M13.6502 16.8434C15.1044 15.3821 16.5125 13.9633 17.9207 12.5481C18.059 12.4062 18.1938 12.2608 18.3463 12.1331C18.7932 11.7465 19.3217 11.7465 19.7083 12.1225C20.0843 12.4913 20.0985 13.0447 19.7296 13.4845C19.5913 13.6476 19.4317 13.7966 19.2791 13.9491C17.715 15.5133 16.1508 17.081 14.583 18.6452C13.8985 19.3298 13.4516 19.3262 12.7564 18.6346C12.0151 17.8968 11.2773 17.1591 10.5396 16.4213C9.95077 15.8325 9.86919 15.2721 10.3019 14.8288C10.7559 14.3641 11.3092 14.4386 11.9299 15.0664C12.4904 15.6374 13.0508 16.2227 13.6502 16.8434Z" fill="#484957"/>
</svg>
