<svg width="45" height="45" viewBox="0 0 45 45" fill="none" xmlns="http://www.w3.org/2000/svg">
<path fill-rule="evenodd" clip-rule="evenodd" d="M41.2747 3.72515C41.7969 4.24735 41.7969 5.09401 41.2747 5.61621L21.6626 25.2283C21.1404 25.7505 20.2937 25.7505 19.7715 25.2283C19.2493 24.7061 19.2493 23.8594 19.7715 23.3372L39.3836 3.72515C39.9058 3.20295 40.7525 3.20295 41.2747 3.72515Z" fill="#1F2937"/>
<path fill-rule="evenodd" clip-rule="evenodd" d="M41.2748 3.72519C41.638 4.08842 41.761 4.62761 41.5913 5.11246L29.1109 40.7707C28.9298 41.2882 28.4511 41.6427 27.9033 41.6651C27.3555 41.6874 26.8496 41.3731 26.6269 40.8721L19.7041 25.2958L4.12785 18.3731C3.62683 18.1504 3.31251 17.6444 3.33486 17.0966C3.35721 16.5488 3.7117 16.0701 4.22919 15.889L39.8875 3.40861C40.3723 3.23891 40.9115 3.36196 41.2748 3.72519ZM8.29614 17.299L21.2602 23.0608C21.5628 23.1953 21.8046 23.4372 21.9391 23.7397L27.7009 36.7038L38.1497 6.85029L8.29614 17.299Z" fill="#1F2937"/>
</svg>
