<svg width="21" height="21" viewBox="0 0 21 21" fill="none" xmlns="http://www.w3.org/2000/svg">
<path d="M9.36847 1.49348C9.81839 0.535033 11.1816 0.535033 11.6315 1.49348L13.6931 5.88526C13.8701 6.26223 14.2232 6.52632 14.6348 6.58958L19.3471 7.31386C20.3525 7.46837 20.7622 8.69486 20.0516 9.42261L16.5659 12.9926C16.2886 13.2766 16.1627 13.6754 16.2266 14.0671L17.038 19.042C17.206 20.0719 16.1126 20.8421 15.1994 20.3371L11.1049 18.0729C10.7285 17.8647 10.2715 17.8647 9.89509 18.0729L5.80056 20.3371C4.88736 20.8421 3.79397 20.0719 3.96196 19.042L4.7734 14.0671C4.83729 13.6754 4.71136 13.2766 4.43408 12.9926L0.948367 9.42261C0.237802 8.69486 0.647548 7.46837 1.65286 7.31386L6.36522 6.58958C6.77683 6.52632 7.12991 6.26223 7.30686 5.88526L9.36847 1.49348Z" fill="#FF3B3B"/>
</svg>
