<svg width="25" height="26" viewBox="0 0 25 26" fill="none" xmlns="http://www.w3.org/2000/svg">
<path d="M11.3685 4.49348C11.8184 3.53503 13.1816 3.53503 13.6315 4.49348L15.6931 8.88526C15.8701 9.26223 16.2232 9.52632 16.6348 9.58958L21.3471 10.3139C22.3525 10.4684 22.7622 11.6949 22.0516 12.4226L18.5659 15.9926C18.2886 16.2766 18.1627 16.6754 18.2266 17.0671L19.038 22.042C19.206 23.0719 18.1126 23.8421 17.1994 23.3371L13.1049 21.0729C12.7285 20.8647 12.2715 20.8647 11.8951 21.0729L7.80056 23.3371C6.88736 23.8421 5.79397 23.0719 5.96196 22.042L6.7734 17.0671C6.83729 16.6754 6.71136 16.2766 6.43408 15.9926L2.94837 12.4226C2.2378 11.6949 2.64755 10.4684 3.65286 10.3139L8.36522 9.58958C8.77683 9.52632 9.12991 9.26223 9.30686 8.88526L11.3685 4.49348Z" fill="#B8B8BE"/>
</svg>
