<svg width="25" height="26" viewBox="0 0 25 26" fill="none" xmlns="http://www.w3.org/2000/svg">
<path d="M25 13C25 13.1017 24.9183 13.1852 24.8166 13.1871C18.2025 13.3759 12.8777 18.7025 12.6871 25.3166C12.6834 25.4183 12.6017 25.5 12.5 25.5C12.3983 25.5 12.3148 25.4183 12.3129 25.3166C12.1241 18.7025 6.79754 13.3777 0.183423 13.1871C0.0817231 13.1852 0 13.1017 0 13C0 12.8983 0.0817231 12.8148 0.183423 12.8129C6.79754 12.6223 12.1223 7.29936 12.3129 0.683423C12.3148 0.581723 12.3983 0.5 12.5 0.5C12.6017 0.5 12.6852 0.581723 12.6871 0.683423C12.8759 7.29754 18.2025 12.6223 24.8166 12.8129C24.9183 12.8148 25 12.8983 25 13Z" fill="#F22F46"/>
</svg>
