<svg width="30" height="31" viewBox="0 0 30 31" fill="none" xmlns="http://www.w3.org/2000/svg">
<path d="M15.5574 5.70659C15.5574 4.98846 15.5574 4.29166 15.5574 3.50953C15.0668 3.50953 14.5975 3.51664 14.1282 3.50598C13.4456 3.49175 13.0084 3.09714 13.0048 2.51054C13.0013 1.92039 13.435 1.51155 14.1176 1.508C15.76 1.49733 17.406 1.49733 19.0521 1.508C19.7382 1.51155 20.1542 1.91328 20.1506 2.5141C20.147 3.11491 19.7311 3.49175 19.0343 3.50598C18.5792 3.51664 18.1277 3.50598 17.6371 3.50598C17.6371 4.25611 17.6371 4.95291 17.6371 5.71726C20.083 5.97678 22.2872 6.86201 24.367 8.58624C24.7865 8.10274 25.1811 7.60147 25.6219 7.13931C26.1552 6.58115 26.7738 6.5456 27.204 6.9971C27.627 7.44149 27.5808 7.99609 27.044 8.53291C26.6031 8.97375 26.1374 9.3897 25.6646 9.83409C25.8032 10.0367 25.8886 10.1718 25.9845 10.2963C31.2817 17.2145 27.7586 27.1902 19.2654 29.1597C15.0419 30.1374 11.3232 28.982 8.18407 25.9992C7.62947 25.473 7.5797 24.8438 8.01698 24.4172C8.46848 23.9763 9.01241 24.0403 9.60256 24.5949C12.4467 27.2719 15.7814 28.1749 19.5071 27.0124C23.2329 25.8534 25.5117 23.2333 26.3045 19.4116C27.5986 13.1723 22.2908 7.21041 15.9449 7.70457C13.4776 7.89655 11.3695 8.83865 9.60967 10.5736C9.05863 11.1175 8.45426 11.1815 8.02053 10.7549C7.56548 10.3105 7.63658 9.69544 8.22318 9.12306C10.1572 7.22818 12.4858 6.13321 15.1663 5.77059C15.2872 5.75281 15.4081 5.73148 15.5574 5.70659Z" fill="#484957"/>
<path d="M15.5928 14.4667C15.5928 14.0081 15.5786 13.5531 15.5963 13.0945C15.6177 12.483 15.991 12.0848 16.5384 12.0599C17.1002 12.035 17.5552 12.4403 17.5837 13.0696C17.6157 13.8375 17.5908 14.6089 17.5979 15.3768C17.605 16.2372 17.9463 16.582 18.8102 16.5927C19.5176 16.6034 20.2251 16.582 20.929 16.6034C21.5049 16.6211 21.8782 17.0015 21.9067 17.5313C21.9351 18.0858 21.5689 18.5551 20.9823 18.58C20.0687 18.6156 19.1479 18.6511 18.2449 18.5516C16.6735 18.3809 15.6426 17.1793 15.5999 15.5902C15.5857 15.2169 15.5928 14.84 15.5928 14.4667Z" fill="#484957"/>
<path d="M5.66675 14.2709C4.66776 14.2709 3.66878 14.278 2.66979 14.2673C1.97299 14.2638 1.53571 13.8905 1.51438 13.311C1.49304 12.7173 1.95876 12.2764 2.66268 12.2729C4.68199 12.2622 6.70129 12.2622 8.71704 12.2729C9.38185 12.2764 9.84402 12.7066 9.84402 13.2754C9.84757 13.8549 9.39963 14.2602 8.7206 14.2673C7.70739 14.278 6.68707 14.2709 5.66675 14.2709Z" fill="#484957"/>
<path d="M7.87123 16.596C8.87022 16.596 9.8692 16.5889 10.8682 16.5996C11.5579 16.6067 11.9916 17.0013 11.9952 17.5808C11.9987 18.1567 11.5543 18.5869 10.8824 18.594C8.86311 18.6082 6.84735 18.6047 4.82805 18.594C4.12058 18.5905 3.64775 18.1496 3.66552 17.563C3.6833 16.9836 4.11702 16.6032 4.81383 16.596C5.83415 16.5854 6.85446 16.596 7.87123 16.596Z" fill="#484957"/>
<path d="M5.63099 22.8851C4.632 22.8851 3.63301 22.8923 2.63402 22.8816C1.95144 22.8745 1.51416 22.4763 1.51416 21.8933C1.51416 21.3138 1.95855 20.8943 2.63402 20.8907C4.67466 20.8801 6.71174 20.8765 8.75238 20.8907C9.40652 20.8943 9.86513 21.3636 9.84736 21.9253C9.82603 22.4834 9.39586 22.8745 8.75238 22.8816C7.71429 22.8958 6.67264 22.8851 5.63099 22.8851Z" fill="#484957"/>
</svg>
