<svg width="45" height="45" viewBox="0 0 45 45" fill="none" xmlns="http://www.w3.org/2000/svg">
<path d="M22.4811 1C34.8692 1.09681 44.7079 11.5729 43.9132 23.9004C43.1549 35.6956 33.0015 44.671 21.2064 43.961C18.2213 43.7795 15.3936 42.9848 12.707 41.6577C12.3318 41.4721 11.7953 41.4156 11.3919 41.5205C8.56417 42.2668 5.75255 43.0816 2.93285 43.8602C1.57746 44.2353 0.811019 43.4649 1.19021 42.1014C1.96875 39.2817 2.77956 36.4701 3.52986 33.6423C3.63071 33.2591 3.59442 32.7508 3.42096 32.3999C-3.04538 19.5519 4.24387 4.42075 18.3383 1.51231C19.6937 1.22993 21.0975 1.16539 22.4811 1ZM4.17931 40.8428C4.51009 40.7743 4.72391 40.742 4.9256 40.6855C7.07567 40.0925 9.22575 39.5157 11.3637 38.8864C12.0858 38.6726 12.6828 38.7331 13.3484 39.1002C17.112 41.1776 21.1499 41.9441 25.3896 41.2422C35.5913 39.552 42.3642 30.6008 41.2791 20.3466C40.1214 9.38245 29.2702 1.60912 18.5158 4.04156C5.99458 6.87336 -0.185349 20.5281 5.98652 31.7787C6.32537 32.3958 6.37376 32.9525 6.18014 33.61C5.63556 35.4535 5.12729 37.3091 4.61498 39.1607C4.46573 39.6811 4.34067 40.2095 4.17931 40.8428Z" fill="#F22F46"/>
<path d="M10.9484 18.4552C10.9323 15.5629 12.2634 13.3644 14.5023 11.6823C15.7084 10.7747 17.1162 10.6456 18.4635 11.295C19.8996 11.9848 21.013 13.1184 21.7189 14.5464C22.4773 16.0833 22.0699 17.83 20.7871 19.1531C19.8391 20.1333 19.8391 20.2584 20.8193 21.2426C21.9044 22.3277 22.9977 23.4048 24.0707 24.502C24.6112 25.0587 25.0791 25.0426 25.6398 24.5061C27.8666 22.3641 29.9884 22.4205 32.203 24.5988C33.1994 25.5791 34.0788 26.5835 34.0909 28.0922C34.0989 29.1773 33.752 30.1051 33.0622 30.9321C30.8274 33.6146 27.9674 34.5142 24.5951 33.8849C17.8181 32.6223 11.8117 26.1922 11.0089 19.3749C10.9847 19.0684 10.9726 18.7618 10.9484 18.4552ZM26.491 31.5412C28.512 31.6219 30.0247 30.6779 31.2429 29.1652C31.727 28.5642 31.7028 27.7735 31.1986 27.1684C30.9686 26.8901 30.6943 26.6481 30.4402 26.3899C29.222 25.1716 28.5604 25.1636 27.3502 26.3455C25.8012 27.8582 23.9214 27.8663 22.3845 26.3536C21.251 25.2362 20.1336 24.1067 19.0121 22.9812C17.0678 21.0329 17.0759 19.4596 18.9436 17.4064C19.2784 17.0393 19.4801 16.4342 19.5003 15.93C19.5285 15.22 17.8988 13.5742 17.1767 13.5137C16.7653 13.4814 16.2368 13.55 15.9262 13.7839C14.1231 15.1434 13.2558 16.9506 13.5462 19.2418C14.0263 23.0619 16.0835 25.9704 18.9355 28.3786C21.1057 30.2221 23.5826 31.4282 26.491 31.5412Z" fill="#F22F46"/>
</svg>
