<svg width="40" height="41" viewBox="0 0 40 41" fill="none" xmlns="http://www.w3.org/2000/svg">
<rect y="0.333008" width="40" height="40" rx="20" fill="#F22F46"/>
<path d="M18.7941 22.2915C17.9416 23.2809 17.1119 24.2474 16.2823 25.211C15.2416 26.417 14.201 27.623 13.1689 28.8376C13.0235 29.0058 12.8752 29.0885 12.6472 29.0771C12.2765 29.0571 11.9059 29.0714 11.4497 29.0714C13.7021 26.4513 15.9059 23.8881 18.1241 21.3108C15.9059 18.0805 13.6992 14.8702 11.464 11.6171C11.6037 11.6085 11.6978 11.5943 11.7918 11.5943C13.2715 11.5943 14.7484 11.6 16.2281 11.5886C16.4591 11.5857 16.5959 11.6627 16.7242 11.8509C18.05 13.7953 19.3843 15.734 20.7186 17.6728C20.787 17.7726 20.8611 17.8724 20.9609 18.0064C21.4 17.4989 21.8219 17.0113 22.241 16.5238C23.5925 14.9557 24.9439 13.3876 26.2867 11.8138C26.4264 11.6513 26.5661 11.58 26.78 11.5886C27.1534 11.6057 27.5298 11.5943 27.9917 11.5943C25.8477 14.089 23.7493 16.5295 21.6281 18.9957C23.9232 22.3371 26.2183 25.6758 28.5505 29.0714C28.3737 29.0714 28.2654 29.0714 28.157 29.0714C26.7001 29.0714 25.2461 29.0657 23.7892 29.0771C23.544 29.0799 23.4043 29.0058 23.2646 28.8034C21.8618 26.7449 20.4506 24.695 19.0393 22.6451C18.968 22.5396 18.8967 22.4369 18.7941 22.2915ZM26.4635 27.9823C26.3666 27.834 26.3067 27.7371 26.244 27.6487C23.0736 23.1126 19.906 18.5766 16.7328 14.0434C16.4334 13.6157 16.211 13.0284 15.7976 12.8145C15.3728 12.5979 14.757 12.7461 14.2238 12.7376C14.0071 12.7347 13.7904 12.7376 13.5167 12.7376C13.6308 12.9058 13.6907 12.9999 13.7562 13.0911C15.3842 15.4204 17.0093 17.7469 18.6373 20.0762C20.4135 22.6194 22.1897 25.1626 23.9745 27.7C24.06 27.8226 24.2197 27.9652 24.3508 27.968C25.0322 27.9965 25.7165 27.9823 26.4635 27.9823Z" fill="white"/>
</svg>
