<svg width="40" height="41" viewBox="0 0 40 41" fill="none" xmlns="http://www.w3.org/2000/svg">
<rect y="0.333008" width="40" height="40" rx="20" fill="#F22F46"/>
<path fill-rule="evenodd" clip-rule="evenodd" d="M21.7549 13.4007C21.1572 13.3788 20.5575 13.3568 19.9549 13.333C19.4893 13.3518 19.0221 13.3705 18.5537 13.3893C16.9764 13.4524 15.3865 13.516 13.8006 13.5864C13.2025 13.6115 12.6501 13.7896 12.157 14.148C11.2827 14.7848 10.9677 15.7208 10.9129 16.7183C10.8147 18.5149 10.7759 20.316 10.7873 22.1148C10.7942 23.0325 10.8901 23.9616 11.0658 24.8632C11.3147 26.1507 12.1935 26.9109 13.4924 27.0638C14.264 27.1529 15.0447 27.1962 15.8231 27.2327C19.2906 27.3925 22.7581 27.3629 26.2234 27.1323C27.0771 27.0752 27.8099 26.7557 28.3441 26.0685C28.7915 25.491 28.9855 24.8016 29.0494 24.094C29.2709 21.6012 29.2663 19.1061 29.0517 16.6133C28.8851 14.7049 27.851 13.6777 25.9586 13.5773C24.561 13.5035 23.1635 13.4523 21.7549 13.4007ZM22.1818 26.2196C21.5452 26.2454 20.9001 26.2717 20.2425 26.2991C19.688 26.2774 19.1245 26.2557 18.5546 26.2338C17.0857 26.1772 15.5739 26.119 14.0608 26.0548C13.7778 26.0411 13.4878 25.9841 13.2139 25.9042C12.7551 25.7695 12.3784 25.4933 12.2506 25.0162C12.1068 24.4866 11.9698 23.9456 11.9333 23.4023C11.7872 21.2314 11.7803 19.0605 11.9721 16.8918C11.9995 16.5722 12.0817 16.2549 12.1707 15.9445C12.4035 15.125 12.9925 14.7278 13.812 14.673C17.3845 14.431 20.957 14.3968 24.5341 14.5817C24.6434 14.5873 24.7525 14.5926 24.8615 14.5979C25.1966 14.6143 25.5308 14.6306 25.865 14.6547C27.2369 14.7529 27.8213 15.2688 27.956 16.643C28.1957 19.1084 28.1866 21.5806 27.9583 24.0483C27.924 24.4227 27.7962 24.8016 27.6387 25.1463C27.3419 25.7992 26.753 26.0252 26.0796 26.0548C24.7925 26.1134 23.5054 26.1657 22.1818 26.2196ZM17.6267 19.5552C17.6273 19.7601 17.628 19.965 17.628 20.1697C17.628 20.3972 17.6272 20.6247 17.6264 20.8523C17.6249 21.3073 17.6234 21.7623 17.628 22.2173C17.6394 23.014 18.1804 23.3336 18.8858 22.957C19.4632 22.6488 20.0393 22.3388 20.6152 22.0288C21.2937 21.6636 21.972 21.2985 22.6523 20.9367C22.9582 20.7746 23.1933 20.5646 23.1979 20.1994C23.2025 19.8341 22.9765 19.6173 22.6706 19.4506C21.9915 19.0835 21.3138 18.7124 20.636 18.3412C20.0537 18.0224 19.4714 17.7035 18.888 17.387C18.1849 17.0058 17.6417 17.3208 17.6302 18.1198C17.6238 18.5977 17.6253 19.0766 17.6267 19.5552ZM18.7465 21.8064V18.5421C19.7532 19.0945 20.7257 19.6264 21.7529 20.188C21.0866 20.5457 20.4407 20.8938 19.7904 21.2441C19.4449 21.4303 19.0982 21.6171 18.7465 21.8064Z" fill="white"/>
</svg>
